<?xml version="1.0" encoding="UTF-8" standalone="no"?>
<!DOCTYPE svg PUBLIC "-//W3C//DTD SVG 1.1//EN" "http://www.w3.org/Graphics/SVG/1.1/DTD/svg11.dtd">
<svg xmlns="http://www.w3.org/2000/svg" version="1.1" viewBox="0.00 0.00 1366.00 768.00">
<g stroke-width="2.00" fill="none" stroke-linecap="butt">
<path stroke="#e2e4e7" vector-effect="non-scaling-stroke" d="
  M 1366.00 423.54
  Q 1114.36 491.69 861.71 554.95
  C 750.94 582.68 635.32 597.07 520.50 605.07
  C 435.01 611.03 345.93 613.59 264.13 614.61
  Q 254.71 614.72 229.91 614.50
  Q 229.58 614.49 228.62 614.71
  Q 227.52 614.96 227.38 613.80"
/>
<path stroke="#838c9f" vector-effect="non-scaling-stroke" d="
  M 227.38 613.80
  L 227.46 597.26"
/>
<path stroke="#f7f8fb" vector-effect="non-scaling-stroke" d="
  M 227.46 597.26
  L 240.11 590.88
  A 1.03 1.02 -15.6 0 0 240.67 589.89
  L 239.11 568.82"
/>
<path stroke="#c3d6fb" vector-effect="non-scaling-stroke" d="
  M 239.11 568.82
  Q 240.23 567.36 238.56 567.26"
/>
<path stroke="#f7f8fb" vector-effect="non-scaling-stroke" d="
  M 238.56 567.26
  Q 238.61 567.13 238.73 567.02
  Q 238.91 566.85 238.87 566.61
  L 235.25 543.66"
/>
<path stroke="#c3d6fb" vector-effect="non-scaling-stroke" d="
  M 235.25 543.66
  Q 235.49 542.84 235.26 542.06
  Q 235.10 541.54 234.57 541.48
  L 234.00 541.41"
/>
<path stroke="#f7f8fb" vector-effect="non-scaling-stroke" d="
  M 234.00 541.41
  Q 234.29 541.24 234.45 541.02
  Q 234.60 540.82 234.56 540.46
  Q 233.58 533.42 231.40 527.14"
/>
<path stroke="#c3d6fb" vector-effect="non-scaling-stroke" d="
  M 231.40 527.14
  Q 232.04 526.45 231.82 525.86
  Q 231.73 525.62 231.38 525.44
  Q 230.96 525.21 230.85 525.12"
/>
<path stroke="#f7f8fb" vector-effect="non-scaling-stroke" d="
  M 230.85 525.12
  Q 229.01 515.11 227.09 509.49
  Q 213.10 468.43 213.81 424.99
  Q 213.88 420.23 214.49 415.63
  A 0.35 0.35 0.0 0 1 215.07 415.41
  Q 228.47 427.03 241.83 438.67
  C 247.92 443.98 255.03 447.13 262.81 444.73
  Q 266.33 443.64 271.67 439.27
  Q 309.03 408.70 346.42 378.14
  A 1.13 1.12 -37.1 0 0 346.63 376.63
  L 339.74 366.60"
/>
<path stroke="#f7e4de" vector-effect="non-scaling-stroke" d="
  M 339.74 366.60
  Q 343.24 362.50 346.47 358.72
  Q 347.81 357.15 349.25 357.03
  C 359.46 356.15 373.14 357.91 383.26 355.16
  Q 394.82 352.01 403.92 341.81
  Q 404.50 341.15 404.63 340.42
  Q 404.80 339.44 404.57 338.80"
/>
<path stroke="#f6d5d9" vector-effect="non-scaling-stroke" d="
  M 404.57 338.80
  Q 403.99 337.44 403.54 337.22
  A 1.04 0.85 -47.5 0 1 403.63 335.60
  Q 405.05 334.57 406.12 333.07
  A 1.75 1.75 0.0 0 0 405.12 330.35
  Q 403.39 329.92 401.64 328.00"
/>
<path stroke="#f7e4de" vector-effect="non-scaling-stroke" d="
  M 401.64 328.00
  C 394.48 323.72 386.82 332.25 379.71 333.51
  Q 376.48 334.09 374.49 333.81
  Q 366.35 332.68 358.16 331.98
  A 0.35 0.34 -86.7 0 1 357.84 331.61
  Q 357.85 331.44 357.92 331.31
  Q 358.03 331.13 358.41 331.05
  Q 362.37 330.20 366.57 329.33"
/>
<path stroke="#f6d5d9" vector-effect="non-scaling-stroke" d="
  M 366.57 329.33
  C 368.78 328.58 378.17 324.66 376.16 321.07
  A 2.34 2.33 70.7 0 0 373.74 319.90
  L 359.03 322.34"
/>
<path stroke="#f7e4de" vector-effect="non-scaling-stroke" d="
  M 359.03 322.34
  C 346.00 325.09 336.99 326.67 329.62 337.36
  Q 327.55 340.36 322.77 342.58"
/>
<path stroke="#f7f8fb" vector-effect="non-scaling-stroke" d="
  M 322.77 342.58
  L 259.62 390.22"
/>
<path stroke="#c3d6fb" vector-effect="non-scaling-stroke" d="
  M 259.62 390.22
  Q 258.53 386.91 256.55 387.17"
/>
<path stroke="#f7f8fb" vector-effect="non-scaling-stroke" d="
  M 256.55 387.17
  L 256.51 386.10
  Q 256.49 385.60 256.19 385.19
  Q 231.46 352.61 206.77 320.00
  C 200.30 311.46 192.76 306.87 183.34 302.17
  Q 183.25 302.12 183.15 302.12
  Q 183.02 302.12 182.88 302.12
  Q 182.63 302.12 182.57 302.36
  L 182.46 302.80"
/>
<path stroke="#838c9f" vector-effect="non-scaling-stroke" d="
  M 182.46 302.80
  Q 173.35 294.50 161.07 290.37"
/>
<path stroke="#aadee7" vector-effect="non-scaling-stroke" d="
  M 161.07 290.37
  Q 160.32 290.44 159.56 289.69
  Q 158.13 288.28 157.37 287.79"
/>
<path stroke="#f6d5d9" vector-effect="non-scaling-stroke" d="
  M 157.37 287.79
  Q 157.27 287.54 157.09 287.35
  Q 156.81 287.05 156.74 286.64
  L 155.39 278.73"
/>
<path stroke="#838c9f" vector-effect="non-scaling-stroke" d="
  M 155.39 278.73
  Q 163.81 280.60 171.39 281.13
  Q 175.32 281.40 178.44 280.19
  Q 189.36 275.95 193.89 264.56
  Q 193.91 264.49 193.96 264.55
  L 194.43 265.01
  A 0.36 0.34 -58.9 0 1 194.51 265.37
  Q 192.03 273.19 186.12 278.83
  Q 184.21 280.66 186.60 279.53
  C 213.88 266.53 206.97 213.28 200.87 190.50
  C 196.05 172.47 189.09 149.63 167.27 146.60
  C 164.77 146.25 161.88 146.44 159.21 146.49
  Q 156.35 146.54 153.41 145.61
  C 117.02 134.04 89.51 145.37 73.96 180.18
  Q 64.67 200.95 61.42 223.49
  C 59.84 234.38 59.96 250.07 67.37 259.11
  C 77.41 271.35 91.99 277.57 107.25 280.13
  A 0.49 0.49 0.0 0 0 107.78 279.45
  Q 106.54 276.69 106.24 273.68
  Q 106.23 273.58 106.33 273.55
  Q 106.48 273.52 106.63 273.54
  Q 106.89 273.57 106.99 273.81
  C 108.80 278.18 110.56 282.02 116.21 281.20
  Q 116.71 281.13 116.47 280.68
  Q 112.59 273.27 110.33 264.61"
/>
<path stroke="#f7e4de" vector-effect="non-scaling-stroke" d="
  M 110.33 264.61
  Q 112.06 265.33 113.69 266.97
  Q 115.12 268.42 116.78 269.47
  Q 118.90 270.81 120.17 272.52"
/>
<path stroke="#f6d5d9" vector-effect="non-scaling-stroke" d="
  M 120.17 272.52
  L 118.52 279.72"
/>
<path stroke="#f7e4de" vector-effect="non-scaling-stroke" d="
  M 118.52 279.72
  L 117.13 284.51"
/>
<path stroke="#838c9f" vector-effect="non-scaling-stroke" d="
  M 117.13 284.51
  Q 101.96 286.34 95.61 300.62"
/>
<path stroke="#c3d6fb" vector-effect="non-scaling-stroke" d="
  M 95.61 300.62
  Q 94.35 298.80 95.14 295.16
  A 0.74 0.73 8.0 0 0 94.46 294.27
  Q 92.92 294.18 92.91 295.77"
/>
<path stroke="#f7f8fb" vector-effect="non-scaling-stroke" d="
  M 92.91 295.77
  L 92.57 295.34
  Q 92.25 294.92 91.76 295.13
  C 79.75 300.35 71.10 304.55 60.74 311.28
  C 58.20 312.93 56.83 314.51 55.58 317.10
  C 49.63 329.45 45.64 342.66 42.15 355.88
  C 35.59 380.74 30.40 405.98 25.61 431.23
  Q 23.14 444.26 23.51 449.41
  C 24.49 462.91 33.86 473.66 43.54 482.93"
/>
<path stroke="#9db9ef" vector-effect="non-scaling-stroke" d="
  M 43.54 482.93
  Q 43.38 482.91 43.25 482.90
  Q 43.00 482.88 42.81 483.05
  L 29.39 494.65
  A 0.42 0.41 -40.5 0 0 29.34 495.23
  L 62.50 536.14"
/>
<path stroke="#f7f8fb" vector-effect="non-scaling-stroke" d="
  M 62.50 536.14
  Q 55.98 562.05 52.41 587.63
  A 0.57 0.57 0.0 0 0 52.83 588.26
  L 64.16 591.27"
/>
<path stroke="#838c9f" vector-effect="non-scaling-stroke" d="
  M 64.16 591.27
  Q 62.33 602.05 62.26 612.28"
/>
<path stroke="#e2e4e7" vector-effect="non-scaling-stroke" d="
  M 62.26 612.28
  L 0.00 610.24"
/>
<path stroke="#8b7081" vector-effect="non-scaling-stroke" d="
  M 155.39 278.73
  Q 155.63 278.76 155.88 278.78"
/>
<path stroke="#8c7f86" vector-effect="non-scaling-stroke" d="
  M 155.88 278.78
  Q 156.36 278.47 156.79 278.35
  C 170.94 274.42 178.67 261.70 181.30 248.04
  C 183.26 237.84 185.14 227.67 189.03 218.01
  Q 189.22 217.54 189.10 217.05
  C 184.91 200.22 177.09 181.66 161.90 171.86
  Q 161.00 171.28 160.64 172.29
  C 155.80 185.88 148.25 199.45 137.84 209.66
  Q 137.01 210.47 138.14 210.70
  Q 143.24 211.78 144.61 214.66
  Q 145.73 217.02 143.53 215.62
  Q 139.81 213.26 135.42 212.51
  Q 134.64 212.38 134.03 212.89
  Q 125.68 219.94 115.25 223.31
  Q 113.91 223.75 115.02 222.87
  C 118.75 219.91 122.07 217.40 125.08 213.70
  Q 125.64 213.01 124.76 212.95
  L 123.41 212.86
  A 1.71 1.68 23.8 0 0 122.06 213.37
  Q 116.88 218.70 109.71 220.70
  Q 109.14 220.86 108.74 220.43
  L 107.52 219.16"
/>
<path stroke="#8b7081" vector-effect="non-scaling-stroke" d="
  M 107.52 219.16
  C 106.30 217.92 107.75 215.93 107.20 214.22
  Q 106.86 213.13 106.69 214.26
  L 106.28 216.98
  A 0.43 0.43 0.0 0 1 105.63 217.28
  C 97.84 212.40 89.02 215.93 87.06 225.02"
/>
<path stroke="#8c7f86" vector-effect="non-scaling-stroke" d="
  M 87.06 225.02
  C 84.83 234.42 89.63 244.91 98.93 248.39
  Q 102.70 249.80 105.93 247.90
  A 0.54 0.54 0.0 0 1 106.74 248.32
  Q 107.46 257.34 110.33 264.61"
/>
<path stroke="#8c7f86" vector-effect="non-scaling-stroke" d="
  M 133.00 199.83
  L 132.77 199.71
  Q 132.61 199.63 132.53 199.79
  Q 129.07 206.11 124.09 211.36
  Q 123.67 211.80 124.28 211.72
  C 129.02 211.13 131.50 204.19 133.21 200.41
  Q 133.38 200.02 133.00 199.83"
/>
<path stroke="#fec8c0" vector-effect="non-scaling-stroke" d="
  M 155.88 278.78
  Q 138.25 281.31 121.70 272.58
  Q 120.80 272.10 120.17 272.52"
/>
<path stroke="#fec8c0" vector-effect="non-scaling-stroke" d="
  M 87.06 225.02
  Q 87.52 224.76 87.87 224.76
  A 0.57 0.57 0.0 0 1 88.40 225.51
  C 86.52 231.18 96.94 229.34 99.23 228.45
  Q 99.63 228.29 99.92 228.62
  C 103.21 232.31 92.36 236.81 100.05 241.60
  A 1.65 1.65 0.0 0 0 102.33 241.08
  Q 102.65 240.58 102.29 239.92
  Q 101.61 238.68 100.93 237.78
  A 1.08 1.07 -44.8 0 1 100.94 236.46
  C 104.23 232.24 104.57 231.85 102.87 226.59
  A 0.88 0.86 -32.6 0 1 103.07 225.72
  Q 105.51 223.14 106.16 219.69
  Q 106.25 219.21 106.73 219.19
  L 107.52 219.16"
/>
<path stroke="#8c7f86" vector-effect="non-scaling-stroke" d="
  M 180.45 213.88
  Q 181.95 214.34 182.80 214.53
  Q 184.05 214.80 183.11 213.93
  C 178.32 209.52 168.75 208.56 164.74 214.77
  Q 164.54 215.07 164.57 215.43
  Q 164.61 215.93 165.04 215.66
  Q 172.15 211.29 180.45 213.88"
/>
<path stroke="#8c7f86" vector-effect="non-scaling-stroke" d="
  M 134.7264 237.7385
  A 9.01 5.03 95.5 0 0 140.5968 229.2521
  A 9.01 5.03 95.5 0 0 136.4536 219.8015
  A 9.01 5.03 95.5 0 0 130.5832 228.2879
  A 9.01 5.03 95.5 0 0 134.7264 237.7385"
/>
<path stroke="#8c7f86" vector-effect="non-scaling-stroke" d="
  M 171.6215 239.4081
  A 9.01 4.29 94.0 0 0 176.5295 230.7193
  A 9.01 4.29 94.0 0 0 172.8785 221.4319
  A 9.01 4.29 94.0 0 0 167.9705 230.1207
  A 9.01 4.29 94.0 0 0 171.6215 239.4081"
/>
<path stroke="#fec8c0" vector-effect="non-scaling-stroke" d="
  M 155.37 234.70
  Q 157.67 239.67 158.25 245.22
  Q 158.34 246.14 158.68 246.82
  A 0.87 0.87 0.0 0 0 160.18 246.93
  C 162.80 243.16 158.49 237.55 156.47 234.17
  Q 156.10 233.56 155.65 234.12
  L 155.41 234.42
  A 0.27 0.26 -37.8 0 0 155.37 234.70"
/>
<path stroke="#fec8c0" vector-effect="non-scaling-stroke" d="
  M 136.27 246.13
  A 9.75 9.75 0.0 0 0 126.52 236.38
  A 9.75 9.75 0.0 0 0 116.77 246.13
  A 9.75 9.75 0.0 0 0 126.52 255.88
  A 9.75 9.75 0.0 0 0 136.27 246.13"
/>
<path stroke="#fec8c0" vector-effect="non-scaling-stroke" d="
  M 179.72 248.13
  C 180.14 245.61 180.71 244.94 180.26 241.99
  C 179.82 239.15 176.80 238.17 174.85 239.87
  C 170.58 243.56 169.77 248.54 170.32 253.99
  C 170.76 258.46 175.39 260.93 177.62 255.54
  Q 179.09 251.97 179.72 248.13"
/>
<path stroke="#fec8c0" vector-effect="non-scaling-stroke" d="
  M 140.51 253.09
  C 139.27 261.50 146.65 264.46 153.46 264.48
  Q 155.74 264.49 157.36 263.63
  Q 161.51 261.41 162.22 257.02"
/>
<path stroke="#ffebe2" vector-effect="non-scaling-stroke" d="
  M 162.22 257.02
  L 162.65 254.72
  Q 162.77 254.07 162.11 253.99
  L 141.24 251.51
  Q 140.79 251.46 140.42 251.73
  Q 139.48 252.43 140.51 253.09"
/>
<path stroke="#fedcdd" vector-effect="non-scaling-stroke" d="
  M 162.22 257.02
  Q 150.49 258.98 140.51 253.09"
/>
<path stroke="#b1c2c9" vector-effect="non-scaling-stroke" d="
  M 157.37 287.79
  L 163.02 301.94"
/>
<path stroke="#fec8c0" vector-effect="non-scaling-stroke" d="
  M 163.02 301.94
  Q 151.43 299.91 140.81 293.65
  Q 127.07 285.55 118.52 279.72"
/>
<path stroke="#b2d1ce" vector-effect="non-scaling-stroke" d="
  M 163.02 301.94
  Q 163.37 304.14 162.91 307.49
  Q 161.85 315.38 157.92 323.49
  Q 157.61 324.13 156.96 323.85
  Q 131.33 312.93 116.03 289.63"
/>
<path stroke="#ffebe2" vector-effect="non-scaling-stroke" d="
  M 116.03 289.63
  Q 116.04 288.93 115.76 288.21"
/>
<path stroke="#8c7f86" vector-effect="non-scaling-stroke" d="
  M 115.76 288.21
  C 117.77 287.87 119.18 286.16 117.13 284.51"
/>
<path stroke="#8c93a3" vector-effect="non-scaling-stroke" d="
  M 115.76 288.21
  C 102.80 290.63 96.75 301.66 96.36 313.99
  Q 96.34 314.50 96.85 314.57
  Q 97.91 314.73 98.95 314.79
  C 105.60 315.20 110.83 318.72 113.36 324.62
  Q 114.60 327.52 114.55 332.57
  Q 114.31 354.38 114.41 376.20
  C 114.45 382.32 113.16 385.90 109.32 390.23"
/>
<path stroke="#777e8f" vector-effect="non-scaling-stroke" d="
  M 109.32 390.23
  Q 107.13 389.50 107.15 388.26"
/>
<path stroke="#8c93a3" vector-effect="non-scaling-stroke" d="
  M 107.15 388.26
  Q 110.89 383.95 111.15 380.25
  Q 111.61 373.83 111.26 353.56"
/>
<path stroke="#5870a3" vector-effect="non-scaling-stroke" d="
  M 111.26 353.56
  Q 111.11 352.92 111.25 352.49"
/>
<path stroke="#8c93a3" vector-effect="non-scaling-stroke" d="
  M 111.25 352.49
  L 111.29 331.80
  Q 111.29 331.26 110.75 331.26
  L 98.89 331.28"
/>
<path stroke="#5870a3" vector-effect="non-scaling-stroke" d="
  M 98.89 331.28
  L 95.69 331.27"
/>
<path stroke="#8c93a3" vector-effect="non-scaling-stroke" d="
  M 95.69 331.27
  L 77.83 331.16
  A 0.38 0.38 0.0 0 0 77.45 331.54
  Q 77.31 358.87 77.44 386.25
  Q 77.46 389.97 80.90 394.62
  Q 81.23 395.06 81.26 395.83"
/>
<path stroke="#838c9f" vector-effect="non-scaling-stroke" d="
  M 81.26 395.83
  Q 80.65 396.97 79.67 397.27"
/>
<path stroke="#8c93a3" vector-effect="non-scaling-stroke" d="
  M 79.67 397.27
  C 75.94 393.72 74.52 390.25 74.51 384.80
  Q 74.47 358.49 74.52 332.20
  Q 74.52 327.32 75.82 324.52
  C 79.27 317.06 84.90 315.72 92.46 314.10
  Q 92.94 313.99 92.97 313.51
  L 93.34 308.61"
/>
<path stroke="#5870a3" vector-effect="non-scaling-stroke" d="
  M 93.34 308.61
  L 95.61 300.62"
/>
<path stroke="#8c93a3" vector-effect="non-scaling-stroke" d="
  M 93.90 317.97
  C 86.82 317.73 79.39 320.41 77.64 327.76
  Q 77.53 328.22 78.00 328.22
  L 95.61 328.19"
/>
<path stroke="#5870a3" vector-effect="non-scaling-stroke" d="
  M 95.61 328.19
  L 97.69 328.19"
/>
<path stroke="#8c93a3" vector-effect="non-scaling-stroke" d="
  M 97.69 328.19
  L 110.89 328.20
  A 0.29 0.29 0.0 0 0 111.16 327.81
  Q 107.30 317.62 96.11 317.81"
/>
<path stroke="#5870a3" vector-effect="non-scaling-stroke" d="
  M 96.11 317.81
  Q 94.98 317.64 93.90 317.97"
/>
<path stroke="#ccddff" vector-effect="non-scaling-stroke" d="
  M 96.11 317.81
  Q 97.92 322.95 97.69 328.19"
/>
<path stroke="#ccddff" vector-effect="non-scaling-stroke" d="
  M 95.61 328.19
  Q 93.75 323.64 93.90 317.97"
/>
<path stroke="#3f788f" vector-effect="non-scaling-stroke" d="
  M 161.07 290.37
  Q 162.47 293.27 164.93 295.36"
/>
<path stroke="#b2e5eb" vector-effect="non-scaling-stroke" d="
  M 164.93 295.36
  Q 173.18 309.13 176.24 323.00
  C 181.22 345.60 181.33 370.35 179.70 393.67"
/>
<path stroke="#7fc2eb" vector-effect="non-scaling-stroke" d="
  M 179.70 393.67
  L 178.27 393.53"
/>
<path stroke="#b2e5eb" vector-effect="non-scaling-stroke" d="
  M 178.27 393.53
  Q 178.28 391.56 177.51 390.71
  C 150.89 361.24 128.74 328.67 115.83 290.93
  Q 115.60 290.24 116.03 289.63"
/>
<path stroke="#ccddff" vector-effect="non-scaling-stroke" d="
  M 178.27 393.53
  L 179.28 400.95
  Q 179.50 402.55 178.31 401.46
  C 162.72 387.12 143.61 374.04 122.75 368.93
  Q 121.99 368.75 122.34 368.04
  L 129.70 352.89
  A 0.61 0.61 0.0 0 0 129.15 352.01
  L 115.98 352.05
  Q 114.96 352.05 115.27 353.02
  L 115.41 353.45
  Q 115.57 353.95 116.09 353.94
  L 126.00 353.81
  A 0.70 0.69 12.4 0 1 126.64 354.80
  L 119.60 369.49
  A 0.93 0.93 0.0 0 0 120.19 370.79
  C 141.91 376.78 162.38 390.55 179.32 405.12
  Q 180.01 405.72 180.12 406.64
  L 186.00 457.94
  Q 186.23 459.95 184.93 458.40
  L 181.36 454.12
  A 0.98 0.97 -43.6 0 1 181.40 452.84
  C 183.94 450.09 180.42 446.22 176.88 447.81
  A 0.81 0.80 -31.8 0 1 175.93 447.59
  L 140.89 405.80
  Q 140.57 405.41 140.06 405.41
  L 132.29 405.31"
/>
<path stroke="#a6c0f3" vector-effect="non-scaling-stroke" d="
  M 132.29 405.31
  L 87.05 444.53"
/>
<path stroke="#f7f8fb" vector-effect="non-scaling-stroke" d="
  M 87.05 444.53
  Q 86.73 430.40 84.09 418.06
  Q 83.50 415.27 83.07 413.04"
/>
<path stroke="#ccddff" vector-effect="non-scaling-stroke" d="
  M 83.07 413.04
  L 84.76 404.32"
/>
<path stroke="#f7f8fb" vector-effect="non-scaling-stroke" d="
  M 84.76 404.32
  C 87.94 404.05 86.98 407.85 87.72 409.26
  C 91.54 416.51 100.33 412.65 98.94 404.81"
/>
<path stroke="#ebebeb" vector-effect="non-scaling-stroke" d="
  M 98.94 404.81
  C 101.24 402.79 100.91 401.25 101.61 398.83
  A 1.72 1.64 -13.1 0 1 102.16 397.99
  Q 106.43 394.47 109.32 390.23"
/>
<path stroke="#ccddff" vector-effect="non-scaling-stroke" d="
  M 177.84 411.50
  A 3.60 3.60 0.0 0 0 174.24 407.90
  A 3.60 3.60 0.0 0 0 170.64 411.50
  A 3.60 3.60 0.0 0 0 174.24 415.10
  A 3.60 3.60 0.0 0 0 177.84 411.50"
/>
<path stroke="#8c93a3" vector-effect="non-scaling-stroke" d="
  M 182.46 302.80
  C 195.19 313.97 204.37 330.11 210.28 345.99
  Q 214.56 357.49 215.91 363.76"
/>
<path stroke="#777e8f" vector-effect="non-scaling-stroke" d="
  M 215.91 363.76
  Q 214.43 364.40 212.78 364.28"
/>
<path stroke="#8c93a3" vector-effect="non-scaling-stroke" d="
  M 212.78 364.28
  Q 210.17 352.56 205.28 342.10"
/>
<path stroke="#5870a3" vector-effect="non-scaling-stroke" d="
  M 205.28 342.10
  L 204.62 340.48"
/>
<path stroke="#8c93a3" vector-effect="non-scaling-stroke" d="
  M 204.62 340.48
  Q 196.10 321.15 182.63 307.37
  Q 175.84 300.44 164.93 295.36"
/>
<path stroke="#ccddff" vector-effect="non-scaling-stroke" d="
  M 93.34 308.61
  Q 91.98 302.41 92.91 295.77"
/>
<path stroke="#f7f8fb" vector-effect="non-scaling-stroke" d="
  M 79.67 397.27
  L 81.50 401.50"
/>
<path stroke="#ccddff" vector-effect="non-scaling-stroke" d="
  M 81.50 401.50
  Q 80.62 404.20 80.90 406.37"
/>
<path stroke="#f7f8fb" vector-effect="non-scaling-stroke" d="
  M 80.90 406.37
  Q 79.32 409.46 78.78 411.50
  Q 74.78 426.63 70.89 441.44
  A 1.60 1.60 0.0 0 0 71.39 443.05
  L 80.10 450.63"
/>
<path stroke="#a6c0f3" vector-effect="non-scaling-stroke" d="
  M 80.10 450.63
  L 125.96 491.31
  A 0.59 0.58 -48.1 0 1 126.00 492.14
  Q 125.16 493.05 124.58 494.68"
/>
<path stroke="#ffebe2" vector-effect="non-scaling-stroke" d="
  M 124.58 494.68
  L 109.89 521.01"
/>
<path stroke="#a6c0f3" vector-effect="non-scaling-stroke" d="
  M 109.89 521.01
  L 103.06 533.62
  A 0.23 0.23 0.0 0 1 102.72 533.70
  Q 71.55 509.93 43.54 482.93"
/>
<path stroke="#ccddff" vector-effect="non-scaling-stroke" d="
  M 204.62 340.48
  L 192.07 348.82
  A 0.56 0.56 0.0 0 0 192.10 349.77
  L 203.24 356.22
  Q 203.78 356.54 203.45 357.07
  C 193.17 373.85 188.96 395.02 185.59 414.14
  C 185.14 416.68 185.22 419.76 184.61 422.59
  Q 184.56 422.80 184.44 422.90
  Q 184.33 422.99 184.16 423.03
  Q 183.63 423.14 183.56 422.61
  L 179.70 393.67"
/>
<path stroke="#ccddff" vector-effect="non-scaling-stroke" d="
  M 256.55 387.17
  Q 247.82 396.22 244.13 407.87
  Q 244.08 408.02 244.13 408.11
  Q 244.21 408.30 244.54 408.45
  A 0.57 0.56 26.8 0 0 245.26 408.22
  Q 251.29 397.78 259.62 390.22"
/>
<path stroke="#ffebe2" vector-effect="non-scaling-stroke" d="
  M 322.77 342.58
  L 339.74 366.60"
/>
<path stroke="#ccddff" vector-effect="non-scaling-stroke" d="
  M 230.85 525.12
  L 206.26 531.88
  A 0.77 0.77 0.0 0 0 205.69 532.66
  C 205.87 537.82 205.51 543.15 205.78 548.11
  Q 206.20 555.68 206.37 563.26
  C 206.51 569.43 207.91 575.15 215.50 574.79
  Q 227.69 574.23 239.11 568.82"
/>
<path stroke="#8c93a3" vector-effect="non-scaling-stroke" d="
  M 227.46 597.26
  Q 219.19 599.79 210.72 600.64
  Q 210.16 600.69 209.82 600.26
  L 193.29 579.39"
/>
<path stroke="#ccddff" vector-effect="non-scaling-stroke" d="
  M 193.29 579.39
  Q 193.93 577.23 193.96 576.25
  Q 194.78 552.95 193.89 532.50
  C 193.64 526.71 193.68 521.14 193.31 516.00
  Q 192.69 507.46 192.29 498.60
  A 1.53 1.48 -22.2 0 1 192.83 497.37
  L 206.80 485.62
  Q 207.46 485.06 206.91 484.40
  L 188.09 461.95
  Q 187.73 461.52 187.67 460.96
  Q 186.53 449.20 185.39 437.44
  Q 184.91 432.52 185.39 428.07
  C 188.10 402.87 193.69 379.33 206.36 357.18
  A 1.08 1.07 30.2 0 0 205.97 355.72
  L 195.57 349.62
  Q 194.47 348.97 195.55 348.28
  L 205.28 342.10"
/>
<path stroke="#ebebeb" vector-effect="non-scaling-stroke" d="
  M 212.78 364.28
  Q 205.34 366.90 204.53 373.26
  Q 203.81 378.88 207.82 382.67
  C 216.49 390.90 230.02 381.37 225.24 370.50
  Q 222.79 364.94 215.91 363.76"
/>
<path stroke="#fec8c0" vector-effect="non-scaling-stroke" d="
  M 366.57 329.33
  L 363.05 328.84
  A 1.52 1.48 73.1 0 1 362.13 328.33
  L 359.46 325.15
  A 1.27 1.26 23.7 0 1 359.16 324.39
  L 359.03 322.34"
/>
<path stroke="#fec8c0" vector-effect="non-scaling-stroke" d="
  M 401.64 328.00
  Q 396.44 330.06 391.51 332.86
  Q 391.43 332.91 386.56 336.38
  Q 380.32 340.83 372.29 338.34
  Q 371.56 338.12 370.77 338.46
  Q 370.19 338.72 370.79 338.93
  Q 374.12 340.12 377.59 340.20
  Q 380.69 340.27 384.11 338.64
  Q 387.16 337.18 390.02 335.36
  A 0.62 0.61 -36.4 0 1 390.83 335.48
  Q 391.52 336.30 390.74 336.86
  A 0.63 0.63 0.0 0 0 390.79 337.92
  Q 391.73 338.47 392.05 339.51
  Q 392.21 340.02 392.73 339.88
  Q 393.06 339.79 393.46 340.13
  A 0.66 0.66 0.0 0 1 393.35 341.21
  Q 389.46 343.29 385.77 345.06
  Q 383.52 346.15 380.97 346.19
  Q 377.49 346.26 374.00 346.25
  Q 373.57 346.25 372.92 346.76
  Q 372.59 347.02 373.01 347.05
  C 377.19 347.33 381.81 347.83 385.75 346.14
  Q 388.24 345.07 390.52 343.76
  A 0.80 0.80 0.0 0 1 391.71 344.48
  Q 391.65 346.61 393.11 348.15
  Q 393.48 348.55 393.96 348.28
  Q 396.11 347.01 398.24 345.70
  Q 400.30 344.42 404.57 338.80"
/>
<path stroke="#ccddff" vector-effect="non-scaling-stroke" d="
  M 95.69 331.27
  Q 97.86 342.38 101.66 353.19
  Q 101.82 353.62 102.28 353.62
  L 111.26 353.56"
/>
<path stroke="#ebebeb" vector-effect="non-scaling-stroke" d="
  M 107.15 388.26
  Q 103.02 390.87 99.88 394.55
  Q 99.27 395.28 98.36 395.00
  Q 91.37 392.86 89.70 399.45"
/>
<path stroke="#f7f8fb" vector-effect="non-scaling-stroke" d="
  M 89.70 399.45
  Q 89.42 399.88 89.34 400.49
  Q 89.28 400.92 88.87 401.09
  Q 88.64 401.19 88.35 401.09
  Q 88.10 401.00 87.86 400.67
  Q 87.06 399.55 86.39 398.43"
/>
<path stroke="#ccddff" vector-effect="non-scaling-stroke" d="
  M 86.39 398.43
  C 88.55 389.30 90.93 380.12 90.65 370.75
  Q 90.62 369.74 89.91 369.66
  A 0.46 0.46 0.0 0 0 89.41 370.00
  L 83.19 394.67"
/>
<path stroke="#f7f8fb" vector-effect="non-scaling-stroke" d="
  M 83.19 394.67
  Q 82.86 396.37 81.26 395.83"
/>
<path stroke="#ccddff" vector-effect="non-scaling-stroke" d="
  M 98.89 331.28
  L 104.76 351.43
  A 1.10 1.08 82.9 0 0 105.76 352.22
  L 111.25 352.49"
/>
<path stroke="#5870a3" vector-effect="non-scaling-stroke" d="
  M 193.29 579.39
  Q 193.65 578.63 192.26 578.46"
/>
<path stroke="#ccddff" vector-effect="non-scaling-stroke" d="
  M 192.26 578.46
  Q 192.92 552.74 191.72 526.99
  C 191.33 518.68 191.30 509.00 190.73 500.03
  A 0.37 0.36 68.0 0 0 190.13 499.77
  L 163.20 522.67"
/>
<path stroke="#cbbadd" vector-effect="non-scaling-stroke" d="
  M 163.20 522.67
  L 157.86 520.16
  A 1.07 1.06 1.0 0 1 157.34 519.63
  L 157.19 519.29"
/>
<path stroke="#729df3" vector-effect="non-scaling-stroke" d="
  M 157.19 519.29
  Q 158.64 518.82 159.42 518.16
  Q 178.86 501.46 198.64 484.87
  A 0.40 0.40 0.0 0 0 198.69 484.30
  L 132.29 405.31"
/>
<path stroke="#c3d6fb" vector-effect="non-scaling-stroke" d="
  M 86.39 398.43
  Q 84.12 398.00 83.19 394.67"
/>
<path stroke="#e2e4e7" vector-effect="non-scaling-stroke" d="
  M 98.94 404.81
  C 96.50 403.01 94.88 400.58 91.11 401.97
  A 0.77 0.76 -30.9 0 1 90.26 401.76
  Q 89.58 400.99 89.70 399.45"
/>
<path stroke="#c3d6fb" vector-effect="non-scaling-stroke" d="
  M 84.76 404.32
  Q 84.27 402.66 82.98 401.53
  Q 82.10 400.75 81.50 401.50"
/>
<path stroke="#c3d6fb" vector-effect="non-scaling-stroke" d="
  M 83.07 413.04
  L 80.90 406.37"
/>
<path stroke="#a59dd1" vector-effect="non-scaling-stroke" d="
  M 157.19 519.29
  L 155.51 518.59"
/>
<path stroke="#a6acd6" vector-effect="non-scaling-stroke" d="
  M 155.51 518.59
  L 143.39 511.21
  Q 141.45 510.04 143.72 510.04
  L 147.75 510.06"
/>
<path stroke="#a59dd1" vector-effect="non-scaling-stroke" d="
  M 147.75 510.06
  Q 152.22 510.70 157.56 508.76
  C 160.76 507.60 161.66 503.56 157.68 502.75
  C 153.46 501.89 149.29 500.63 144.95 499.73"
/>
<path stroke="#a6acd6" vector-effect="non-scaling-stroke" d="
  M 144.95 499.73
  L 124.58 494.68"
/>
<path stroke="#9db9ef" vector-effect="non-scaling-stroke" d="
  M 80.10 450.63
  L 87.05 444.53"
/>
<path stroke="#9db9ef" vector-effect="non-scaling-stroke" d="
  M 152.2400 448.5961
  A 7.49 7.32 0.2 0 0 144.7756 441.2500
  A 7.49 7.32 0.2 0 0 137.2600 448.5439
  A 7.49 7.32 0.2 0 0 144.7244 455.8900
  A 7.49 7.32 0.2 0 0 152.2400 448.5961"
/>
<path stroke="#729df3" vector-effect="non-scaling-stroke" d="
  M 166.56 465.50
  A 7.48 7.48 0.0 0 0 159.08 458.02
  A 7.48 7.48 0.0 0 0 151.60 465.50
  A 7.48 7.48 0.0 0 0 159.08 472.98
  A 7.48 7.48 0.0 0 0 166.56 465.50"
/>
<path stroke="#9db9ef" vector-effect="non-scaling-stroke" d="
  M 181.03 482.59
  A 7.38 7.38 0.0 0 0 173.65 475.21
  A 7.38 7.38 0.0 0 0 166.27 482.59
  A 7.38 7.38 0.0 0 0 173.65 489.97
  A 7.38 7.38 0.0 0 0 181.03 482.59"
/>
<path stroke="#748392" vector-effect="non-scaling-stroke" d="
  M 1366.00 692.70
  C 1236.65 672.82 1105.39 663.27 974.50 666.66
  C 884.22 668.99 794.24 678.90 706.46 700.54
  C 639.02 717.16 568.74 725.37 499.50 729.43
  C 407.19 734.84 314.49 733.48 222.25 727.60
  Q 110.73 720.50 0.00 705.20"
/>
<path stroke="#777e8f" vector-effect="non-scaling-stroke" d="
  M 62.26 612.28
  Q 144.62 614.54 226.93 614.50
  Q 227.30 614.50 227.35 614.13
  L 227.38 613.80"
/>
<path stroke="#a6acd6" vector-effect="non-scaling-stroke" d="
  M 109.89 521.01
  Q 122.11 531.42 137.94 536.22"
/>
<path stroke="#729df3" vector-effect="non-scaling-stroke" d="
  M 137.94 536.22
  Q 116.24 554.82 94.72 573.04
  Q 93.75 573.85 93.05 573.58
  Q 92.25 573.27 91.65 572.04"
/>
<path stroke="#a6c0f3" vector-effect="non-scaling-stroke" d="
  M 91.65 572.04
  L 68.31 543.36"
/>
<path stroke="#729df3" vector-effect="non-scaling-stroke" d="
  M 68.31 543.36
  Q 68.24 543.75 67.14 542.25"
/>
<path stroke="#a6c0f3" vector-effect="non-scaling-stroke" d="
  M 67.14 542.25
  L 62.50 536.14"
/>
<path stroke="#fec8c0" vector-effect="non-scaling-stroke" d="
  M 144.95 499.73
  Q 142.70 505.04 147.75 510.06"
/>
<path stroke="#fec8c0" vector-effect="non-scaling-stroke" d="
  M 155.51 518.59
  Q 155.75 518.80 155.43 519.26
  A 0.15 0.15 0.0 0 0 155.49 519.48
  Q 155.63 519.56 155.78 519.64
  Q 155.95 519.73 155.79 519.84
  Q 155.00 520.42 154.44 521.21
  Q 153.00 523.25 153.66 524.57
  Q 154.73 526.70 152.52 525.93
  L 141.56 522.11
  Q 141.39 522.05 141.33 522.22
  L 141.21 522.59
  Q 141.19 522.63 141.24 522.64
  Q 145.40 524.01 149.69 526.20
  A 0.92 0.92 0.0 0 1 149.76 527.80
  Q 148.72 528.44 148.99 529.55
  A 1.44 1.44 0.0 0 1 147.25 531.29
  L 135.02 528.29
  Q 134.86 528.25 134.85 528.30
  L 134.78 528.57
  Q 134.72 528.78 134.92 528.84
  L 143.24 531.23
  A 0.80 0.79 -49.8 0 1 143.36 532.71
  Q 141.20 533.75 140.57 536.56"
/>
<path stroke="#ccc9e2" vector-effect="non-scaling-stroke" d="
  M 140.57 536.56
  L 137.94 536.22"
/>
<path stroke="#8c93a3" vector-effect="non-scaling-stroke" d="
  M 192.26 578.46
  L 191.45 600.74
  Q 191.43 601.28 190.90 601.31
  Q 144.19 603.87 98.00 597.48
  Q 83.28 595.44 64.16 591.27"
/>
<path stroke="#ccddff" vector-effect="non-scaling-stroke" d="
  M 67.14 542.25
  Q 66.04 547.43 65.78 552.25
  C 64.82 570.41 74.75 572.03 89.09 574.26
  Q 93.32 574.92 97.46 575.00
  C 105.77 575.17 114.43 575.54 122.70 574.76
  C 128.75 574.19 134.35 574.00 139.76 571.53
  C 152.95 565.50 152.84 549.87 152.36 537.63"
/>
<path stroke="#fedcdd" vector-effect="non-scaling-stroke" d="
  M 152.36 537.63
  L 154.81 536.04
  A 0.62 0.62 0.0 0 0 155.01 535.20
  Q 154.67 534.64 154.60 534.03
  Q 154.57 533.63 154.95 533.74
  C 157.71 534.55 162.80 535.29 165.05 532.70
  Q 165.44 532.26 165.23 531.71
  L 164.70 530.30
  A 0.71 0.70 -8.2 0 1 165.42 529.35
  Q 168.43 529.57 168.58 527.50
  C 168.75 525.15 165.09 523.58 163.20 522.67"
/>
<path stroke="#ccddff" vector-effect="non-scaling-stroke" d="
  M 187.89 513.75
  A 3.62 3.62 0.0 0 0 184.27 510.13
  A 3.62 3.62 0.0 0 0 180.65 513.75
  A 3.62 3.62 0.0 0 0 184.27 517.37
  A 3.62 3.62 0.0 0 0 187.89 513.75"
/>
<path stroke="#ccddff" vector-effect="non-scaling-stroke" d="
  M 187.83 569.19
  A 3.56 3.56 0.0 0 0 184.27 565.63
  A 3.56 3.56 0.0 0 0 180.71 569.19
  A 3.56 3.56 0.0 0 0 184.27 572.75
  A 3.56 3.56 0.0 0 0 187.83 569.19"
/>
<path stroke="#cbbadd" vector-effect="non-scaling-stroke" d="
  M 152.36 537.63
  Q 150.71 536.52 150.70 538.21"
/>
<path stroke="#fedcdd" vector-effect="non-scaling-stroke" d="
  M 150.70 538.21
  L 150.61 537.82
  Q 150.50 537.33 149.99 537.31
  L 145.83 537.18"
/>
<path stroke="#cbbadd" vector-effect="non-scaling-stroke" d="
  M 145.83 537.18
  L 140.57 536.56"
/>
<path stroke="#ccddff" vector-effect="non-scaling-stroke" d="
  M 231.40 527.14
  L 208.65 533.45
  Q 208.16 533.59 208.19 534.09
  L 208.99 546.31
  A 0.49 0.49 0.0 0 0 209.59 546.76
  L 234.00 541.41"
/>
<path stroke="#ccddff" vector-effect="non-scaling-stroke" d="
  M 235.25 543.66
  L 210.45 549.91
  A 1.22 1.21 84.0 0 0 209.53 551.05
  C 209.36 555.86 209.67 565.00 212.59 568.82
  C 218.08 576.01 232.13 569.78 238.56 567.26"
/>
<path stroke="#ccddff" vector-effect="non-scaling-stroke" d="
  M 145.83 537.18
  L 139.87 542.17
  A 0.63 0.63 0.0 0 0 140.27 543.28
  L 150.23 543.22
  A 0.50 0.49 -90.0 0 0 150.72 542.72
  L 150.70 538.21"
/>
<path stroke="#ccddff" vector-effect="non-scaling-stroke" d="
  M 68.31 543.36
  C 67.54 552.93 65.75 565.11 77.28 569.45
  Q 84.15 572.04 91.65 572.04"
/>
<path stroke="#ccddff" vector-effect="non-scaling-stroke" d="
  M 131.68 571.79
  C 145.24 570.06 151.28 558.73 150.70 546.15
  A 0.30 0.29 1.1 0 0 150.42 545.87
  L 136.82 545.23
  A 0.70 0.66 23.8 0 0 136.34 545.40
  L 104.14 572.67
  Q 103.50 573.22 104.33 573.24
  Q 117.89 573.56 131.68 571.79"
/>
</g>
<path fill="#eef1f7" d="
  M 0.00 0.00
  L 1366.00 0.00
  L 1366.00 423.54
  Q 1114.36 491.69 861.71 554.95
  C 750.94 582.68 635.32 597.07 520.50 605.07
  C 435.01 611.03 345.93 613.59 264.13 614.61
  Q 254.71 614.72 229.91 614.50
  Q 229.58 614.49 228.62 614.71
  Q 227.52 614.96 227.38 613.80
  L 227.46 597.26
  L 240.11 590.88
  A 1.03 1.02 -15.6 0 0 240.67 589.89
  L 239.11 568.82
  Q 240.23 567.36 238.56 567.26
  Q 238.61 567.13 238.73 567.02
  Q 238.91 566.85 238.87 566.61
  L 235.25 543.66
  Q 235.49 542.84 235.26 542.06
  Q 235.10 541.54 234.57 541.48
  L 234.00 541.41
  Q 234.29 541.24 234.45 541.02
  Q 234.60 540.82 234.56 540.46
  Q 233.58 533.42 231.40 527.14
  Q 232.04 526.45 231.82 525.86
  Q 231.73 525.62 231.38 525.44
  Q 230.96 525.21 230.85 525.12
  Q 229.01 515.11 227.09 509.49
  Q 213.10 468.43 213.81 424.99
  Q 213.88 420.23 214.49 415.63
  A 0.35 0.35 0.0 0 1 215.07 415.41
  Q 228.47 427.03 241.83 438.67
  C 247.92 443.98 255.03 447.13 262.81 444.73
  Q 266.33 443.64 271.67 439.27
  Q 309.03 408.70 346.42 378.14
  A 1.13 1.12 -37.1 0 0 346.63 376.63
  L 339.74 366.60
  Q 343.24 362.50 346.47 358.72
  Q 347.81 357.15 349.25 357.03
  C 359.46 356.15 373.14 357.91 383.26 355.16
  Q 394.82 352.01 403.92 341.81
  Q 404.50 341.15 404.63 340.42
  Q 404.80 339.44 404.57 338.80
  Q 403.99 337.44 403.54 337.22
  A 1.04 0.85 -47.5 0 1 403.63 335.60
  Q 405.05 334.57 406.12 333.07
  A 1.75 1.75 0.0 0 0 405.12 330.35
  Q 403.39 329.92 401.64 328.00
  C 394.48 323.72 386.82 332.25 379.71 333.51
  Q 376.48 334.09 374.49 333.81
  Q 366.35 332.68 358.16 331.98
  A 0.35 0.34 -86.7 0 1 357.84 331.61
  Q 357.85 331.44 357.92 331.31
  Q 358.03 331.13 358.41 331.05
  Q 362.37 330.20 366.57 329.33
  C 368.78 328.58 378.17 324.66 376.16 321.07
  A 2.34 2.33 70.7 0 0 373.74 319.90
  L 359.03 322.34
  C 346.00 325.09 336.99 326.67 329.62 337.36
  Q 327.55 340.36 322.77 342.58
  L 259.62 390.22
  Q 258.53 386.91 256.55 387.17
  L 256.51 386.10
  Q 256.49 385.60 256.19 385.19
  Q 231.46 352.61 206.77 320.00
  C 200.30 311.46 192.76 306.87 183.34 302.17
  Q 183.25 302.12 183.15 302.12
  Q 183.02 302.12 182.88 302.12
  Q 182.63 302.12 182.57 302.36
  L 182.46 302.80
  Q 173.35 294.50 161.07 290.37
  Q 160.32 290.44 159.56 289.69
  Q 158.13 288.28 157.37 287.79
  Q 157.27 287.54 157.09 287.35
  Q 156.81 287.05 156.74 286.64
  L 155.39 278.73
  Q 163.81 280.60 171.39 281.13
  Q 175.32 281.40 178.44 280.19
  Q 189.36 275.95 193.89 264.56
  Q 193.91 264.49 193.96 264.55
  L 194.43 265.01
  A 0.36 0.34 -58.9 0 1 194.51 265.37
  Q 192.03 273.19 186.12 278.83
  Q 184.21 280.66 186.60 279.53
  C 213.88 266.53 206.97 213.28 200.87 190.50
  C 196.05 172.47 189.09 149.63 167.27 146.60
  C 164.77 146.25 161.88 146.44 159.21 146.49
  Q 156.35 146.54 153.41 145.61
  C 117.02 134.04 89.51 145.37 73.96 180.18
  Q 64.67 200.95 61.42 223.49
  C 59.84 234.38 59.96 250.07 67.37 259.11
  C 77.41 271.35 91.99 277.57 107.25 280.13
  A 0.49 0.49 0.0 0 0 107.78 279.45
  Q 106.54 276.69 106.24 273.68
  Q 106.23 273.58 106.33 273.55
  Q 106.48 273.52 106.63 273.54
  Q 106.89 273.57 106.99 273.81
  C 108.80 278.18 110.56 282.02 116.21 281.20
  Q 116.71 281.13 116.47 280.68
  Q 112.59 273.27 110.33 264.61
  Q 112.06 265.33 113.69 266.97
  Q 115.12 268.42 116.78 269.47
  Q 118.90 270.81 120.17 272.52
  L 118.52 279.72
  L 117.13 284.51
  Q 101.96 286.34 95.61 300.62
  Q 94.35 298.80 95.14 295.16
  A 0.74 0.73 8.0 0 0 94.46 294.27
  Q 92.92 294.18 92.91 295.77
  L 92.57 295.34
  Q 92.25 294.92 91.76 295.13
  C 79.75 300.35 71.10 304.55 60.74 311.28
  C 58.20 312.93 56.83 314.51 55.58 317.10
  C 49.63 329.45 45.64 342.66 42.15 355.88
  C 35.59 380.74 30.40 405.98 25.61 431.23
  Q 23.14 444.26 23.51 449.41
  C 24.49 462.91 33.86 473.66 43.54 482.93
  Q 43.38 482.91 43.25 482.90
  Q 43.00 482.88 42.81 483.05
  L 29.39 494.65
  A 0.42 0.41 -40.5 0 0 29.34 495.23
  L 62.50 536.14
  Q 55.98 562.05 52.41 587.63
  A 0.57 0.57 0.0 0 0 52.83 588.26
  L 64.16 591.27
  Q 62.33 602.05 62.26 612.28
  L 0.00 610.24
  L 0.00 0.00
  Z"
/>
<path fill="#182647" d="
  M 155.39 278.73
  Q 155.63 278.76 155.88 278.78
  Q 156.36 278.47 156.79 278.35
  C 170.94 274.42 178.67 261.70 181.30 248.04
  C 183.26 237.84 185.14 227.67 189.03 218.01
  Q 189.22 217.54 189.10 217.05
  C 184.91 200.22 177.09 181.66 161.90 171.86
  Q 161.00 171.28 160.64 172.29
  C 155.80 185.88 148.25 199.45 137.84 209.66
  Q 137.01 210.47 138.14 210.70
  Q 143.24 211.78 144.61 214.66
  Q 145.73 217.02 143.53 215.62
  Q 139.81 213.26 135.42 212.51
  Q 134.64 212.38 134.03 212.89
  Q 125.68 219.94 115.25 223.31
  Q 113.91 223.75 115.02 222.87
  C 118.75 219.91 122.07 217.40 125.08 213.70
  Q 125.64 213.01 124.76 212.95
  L 123.41 212.86
  A 1.71 1.68 23.8 0 0 122.06 213.37
  Q 116.88 218.70 109.71 220.70
  Q 109.14 220.86 108.74 220.43
  L 107.52 219.16
  C 106.30 217.92 107.75 215.93 107.20 214.22
  Q 106.86 213.13 106.69 214.26
  L 106.28 216.98
  A 0.43 0.43 0.0 0 1 105.63 217.28
  C 97.84 212.40 89.02 215.93 87.06 225.02
  C 84.83 234.42 89.63 244.91 98.93 248.39
  Q 102.70 249.80 105.93 247.90
  A 0.54 0.54 0.0 0 1 106.74 248.32
  Q 107.46 257.34 110.33 264.61
  Q 112.59 273.27 116.47 280.68
  Q 116.71 281.13 116.21 281.20
  C 110.56 282.02 108.80 278.18 106.99 273.81
  Q 106.89 273.57 106.63 273.54
  Q 106.48 273.52 106.33 273.55
  Q 106.23 273.58 106.24 273.68
  Q 106.54 276.69 107.78 279.45
  A 0.49 0.49 0.0 0 1 107.25 280.13
  C 91.99 277.57 77.41 271.35 67.37 259.11
  C 59.96 250.07 59.84 234.38 61.42 223.49
  Q 64.67 200.95 73.96 180.18
  C 89.51 145.37 117.02 134.04 153.41 145.61
  Q 156.35 146.54 159.21 146.49
  C 161.88 146.44 164.77 146.25 167.27 146.60
  C 189.09 149.63 196.05 172.47 200.87 190.50
  C 206.97 213.28 213.88 266.53 186.60 279.53
  Q 184.21 280.66 186.12 278.83
  Q 192.03 273.19 194.51 265.37
  A 0.36 0.34 -58.9 0 0 194.43 265.01
  L 193.96 264.55
  Q 193.91 264.49 193.89 264.56
  Q 189.36 275.95 178.44 280.19
  Q 175.32 281.40 171.39 281.13
  Q 163.81 280.60 155.39 278.73
  Z
  M 133.00 199.83
  L 132.77 199.71
  Q 132.61 199.63 132.53 199.79
  Q 129.07 206.11 124.09 211.36
  Q 123.67 211.80 124.28 211.72
  C 129.02 211.13 131.50 204.19 133.21 200.41
  Q 133.38 200.02 133.00 199.83
  Z"
/>
<path fill="#ffd7c5" d="
  M 155.88 278.78
  Q 138.25 281.31 121.70 272.58
  Q 120.80 272.10 120.17 272.52
  Q 118.90 270.81 116.78 269.47
  Q 115.12 268.42 113.69 266.97
  Q 112.06 265.33 110.33 264.61
  Q 107.46 257.34 106.74 248.32
  A 0.54 0.54 0.0 0 0 105.93 247.90
  Q 102.70 249.80 98.93 248.39
  C 89.63 244.91 84.83 234.42 87.06 225.02
  Q 87.52 224.76 87.87 224.76
  A 0.57 0.57 0.0 0 1 88.40 225.51
  C 86.52 231.18 96.94 229.34 99.23 228.45
  Q 99.63 228.29 99.92 228.62
  C 103.21 232.31 92.36 236.81 100.05 241.60
  A 1.65 1.65 0.0 0 0 102.33 241.08
  Q 102.65 240.58 102.29 239.92
  Q 101.61 238.68 100.93 237.78
  A 1.08 1.07 -44.8 0 1 100.94 236.46
  C 104.23 232.24 104.57 231.85 102.87 226.59
  A 0.88 0.86 -32.6 0 1 103.07 225.72
  Q 105.51 223.14 106.16 219.69
  Q 106.25 219.21 106.73 219.19
  L 107.52 219.16
  L 108.74 220.43
  Q 109.14 220.86 109.71 220.70
  Q 116.88 218.70 122.06 213.37
  A 1.71 1.68 23.8 0 1 123.41 212.86
  L 124.76 212.95
  Q 125.64 213.01 125.08 213.70
  C 122.07 217.40 118.75 219.91 115.02 222.87
  Q 113.91 223.75 115.25 223.31
  Q 125.68 219.94 134.03 212.89
  Q 134.64 212.38 135.42 212.51
  Q 139.81 213.26 143.53 215.62
  Q 145.73 217.02 144.61 214.66
  Q 143.24 211.78 138.14 210.70
  Q 137.01 210.47 137.84 209.66
  C 148.25 199.45 155.80 185.88 160.64 172.29
  Q 161.00 171.28 161.90 171.86
  C 177.09 181.66 184.91 200.22 189.10 217.05
  Q 189.22 217.54 189.03 218.01
  C 185.14 227.67 183.26 237.84 181.30 248.04
  C 178.67 261.70 170.94 274.42 156.79 278.35
  Q 156.36 278.47 155.88 278.78
  Z
  M 180.45 213.88
  Q 181.95 214.34 182.80 214.53
  Q 184.05 214.80 183.11 213.93
  C 178.32 209.52 168.75 208.56 164.74 214.77
  Q 164.54 215.07 164.57 215.43
  Q 164.61 215.93 165.04 215.66
  Q 172.15 211.29 180.45 213.88
  Z
  M 134.7264 237.7385
  A 9.01 5.03 95.5 0 0 140.5968 229.2521
  A 9.01 5.03 95.5 0 0 136.4536 219.8015
  A 9.01 5.03 95.5 0 0 130.5832 228.2879
  A 9.01 5.03 95.5 0 0 134.7264 237.7385
  Z
  M 171.6215 239.4081
  A 9.01 4.29 94.0 0 0 176.5295 230.7193
  A 9.01 4.29 94.0 0 0 172.8785 221.4319
  A 9.01 4.29 94.0 0 0 167.9705 230.1207
  A 9.01 4.29 94.0 0 0 171.6215 239.4081
  Z
  M 155.37 234.70
  Q 157.67 239.67 158.25 245.22
  Q 158.34 246.14 158.68 246.82
  A 0.87 0.87 0.0 0 0 160.18 246.93
  C 162.80 243.16 158.49 237.55 156.47 234.17
  Q 156.10 233.56 155.65 234.12
  L 155.41 234.42
  A 0.27 0.26 -37.8 0 0 155.37 234.70
  Z
  M 136.27 246.13
  A 9.75 9.75 0.0 0 0 126.52 236.38
  A 9.75 9.75 0.0 0 0 116.77 246.13
  A 9.75 9.75 0.0 0 0 126.52 255.88
  A 9.75 9.75 0.0 0 0 136.27 246.13
  Z
  M 179.72 248.13
  C 180.14 245.61 180.71 244.94 180.26 241.99
  C 179.82 239.15 176.80 238.17 174.85 239.87
  C 170.58 243.56 169.77 248.54 170.32 253.99
  C 170.76 258.46 175.39 260.93 177.62 255.54
  Q 179.09 251.97 179.72 248.13
  Z
  M 140.51 253.09
  C 139.27 261.50 146.65 264.46 153.46 264.48
  Q 155.74 264.49 157.36 263.63
  Q 161.51 261.41 162.22 257.02
  L 162.65 254.72
  Q 162.77 254.07 162.11 253.99
  L 141.24 251.51
  Q 140.79 251.46 140.42 251.73
  Q 139.48 252.43 140.51 253.09
  Z"
/>
<path fill="#ffd7c5" d="
  M 133.21 200.41
  C 131.50 204.19 129.02 211.13 124.28 211.72
  Q 123.67 211.80 124.09 211.36
  Q 129.07 206.11 132.53 199.79
  Q 132.61 199.63 132.77 199.71
  L 133.00 199.83
  Q 133.38 200.02 133.21 200.41
  Z"
/>
<path fill="#182647" d="
  M 180.45 213.88
  Q 172.15 211.29 165.04 215.66
  Q 164.61 215.93 164.57 215.43
  Q 164.54 215.07 164.74 214.77
  C 168.75 208.56 178.32 209.52 183.11 213.93
  Q 184.05 214.80 182.80 214.53
  Q 181.95 214.34 180.45 213.88
  Z"
/>
<path fill="#fdb9bb" d="
  M 107.52 219.16
  L 106.73 219.19
  Q 106.25 219.21 106.16 219.69
  Q 105.51 223.14 103.07 225.72
  A 0.88 0.86 -32.6 0 0 102.87 226.59
  C 104.57 231.85 104.23 232.24 100.94 236.46
  A 1.08 1.07 -44.8 0 0 100.93 237.78
  Q 101.61 238.68 102.29 239.92
  Q 102.65 240.58 102.33 241.08
  A 1.65 1.65 0.0 0 1 100.05 241.60
  C 92.36 236.81 103.21 232.31 99.92 228.62
  Q 99.63 228.29 99.23 228.45
  C 96.94 229.34 86.52 231.18 88.40 225.51
  A 0.57 0.57 0.0 0 0 87.87 224.76
  Q 87.52 224.76 87.06 225.02
  C 89.02 215.93 97.84 212.40 105.63 217.28
  A 0.43 0.43 0.0 0 0 106.28 216.98
  L 106.69 214.26
  Q 106.86 213.13 107.20 214.22
  C 107.75 215.93 106.30 217.92 107.52 219.16
  Z"
/>
<ellipse fill="#182647" cx="0.00" cy="0.00" transform="translate(135.59,228.77) rotate(95.5)" rx="9.01" ry="5.03"/>
<ellipse fill="#182647" cx="0.00" cy="0.00" transform="translate(172.25,230.42) rotate(94.0)" rx="9.01" ry="4.29"/>
<path fill="#fdb9bb" d="
  M 155.37 234.70
  A 0.27 0.26 -37.8 0 1 155.41 234.42
  L 155.65 234.12
  Q 156.10 233.56 156.47 234.17
  C 158.49 237.55 162.80 243.16 160.18 246.93
  A 0.87 0.87 0.0 0 1 158.68 246.82
  Q 158.34 246.14 158.25 245.22
  Q 157.67 239.67 155.37 234.70
  Z"
/>
<circle fill="#fdb9bb" cx="126.52" cy="246.13" r="9.75"/>
<path fill="#fdb9bb" d="
  M 179.72 248.13
  Q 179.09 251.97 177.62 255.54
  C 175.39 260.93 170.76 258.46 170.32 253.99
  C 169.77 248.54 170.58 243.56 174.85 239.87
  C 176.80 238.17 179.82 239.15 180.26 241.99
  C 180.71 244.94 180.14 245.61 179.72 248.13
  Z"
/>
<path fill="#ffffff" d="
  M 162.22 257.02
  Q 150.49 258.98 140.51 253.09
  Q 139.48 252.43 140.42 251.73
  Q 140.79 251.46 141.24 251.51
  L 162.11 253.99
  Q 162.77 254.07 162.65 254.72
  L 162.22 257.02
  Z"
/>
<path fill="#fdb9bb" d="
  M 140.51 253.09
  Q 150.49 258.98 162.22 257.02
  Q 161.51 261.41 157.36 263.63
  Q 155.74 264.49 153.46 264.48
  C 146.65 264.46 139.27 261.50 140.51 253.09
  Z"
/>
<path fill="#fdb9bb" d="
  M 155.88 278.78
  Q 155.63 278.76 155.39 278.73
  L 156.74 286.64
  Q 156.81 287.05 157.09 287.35
  Q 157.27 287.54 157.37 287.79
  L 163.02 301.94
  Q 151.43 299.91 140.81 293.65
  Q 127.07 285.55 118.52 279.72
  L 120.17 272.52
  Q 120.80 272.10 121.70 272.58
  Q 138.25 281.31 155.88 278.78
  Z"
/>
<path fill="#ffd7c5" d="
  M 118.52 279.72
  Q 127.07 285.55 140.81 293.65
  Q 151.43 299.91 163.02 301.94
  Q 163.37 304.14 162.91 307.49
  Q 161.85 315.38 157.92 323.49
  Q 157.61 324.13 156.96 323.85
  Q 131.33 312.93 116.03 289.63
  Q 116.04 288.93 115.76 288.21
  C 117.77 287.87 119.18 286.16 117.13 284.51
  L 118.52 279.72
  Z"
/>
<path fill="#182647" d="
  M 117.13 284.51
  C 119.18 286.16 117.77 287.87 115.76 288.21
  C 102.80 290.63 96.75 301.66 96.36 313.99
  Q 96.34 314.50 96.85 314.57
  Q 97.91 314.73 98.95 314.79
  C 105.60 315.20 110.83 318.72 113.36 324.62
  Q 114.60 327.52 114.55 332.57
  Q 114.31 354.38 114.41 376.20
  C 114.45 382.32 113.16 385.90 109.32 390.23
  Q 107.13 389.50 107.15 388.26
  Q 110.89 383.95 111.15 380.25
  Q 111.61 373.83 111.26 353.56
  Q 111.11 352.92 111.25 352.49
  L 111.29 331.80
  Q 111.29 331.26 110.75 331.26
  L 98.89 331.28
  L 95.69 331.27
  L 77.83 331.16
  A 0.38 0.38 0.0 0 0 77.45 331.54
  Q 77.31 358.87 77.44 386.25
  Q 77.46 389.97 80.90 394.62
  Q 81.23 395.06 81.26 395.83
  Q 80.65 396.97 79.67 397.27
  C 75.94 393.72 74.52 390.25 74.51 384.80
  Q 74.47 358.49 74.52 332.20
  Q 74.52 327.32 75.82 324.52
  C 79.27 317.06 84.90 315.72 92.46 314.10
  Q 92.94 313.99 92.97 313.51
  L 93.34 308.61
  L 95.61 300.62
  Q 101.96 286.34 117.13 284.51
  Z
  M 93.90 317.97
  C 86.82 317.73 79.39 320.41 77.64 327.76
  Q 77.53 328.22 78.00 328.22
  L 95.61 328.19
  L 97.69 328.19
  L 110.89 328.20
  A 0.29 0.29 0.0 0 0 111.16 327.81
  Q 107.30 317.62 96.11 317.81
  Q 94.98 317.64 93.90 317.97
  Z"
/>
<path fill="#65cad7" d="
  M 157.37 287.79
  Q 158.13 288.28 159.56 289.69
  Q 160.32 290.44 161.07 290.37
  Q 162.47 293.27 164.93 295.36
  Q 173.18 309.13 176.24 323.00
  C 181.22 345.60 181.33 370.35 179.70 393.67
  L 178.27 393.53
  Q 178.28 391.56 177.51 390.71
  C 150.89 361.24 128.74 328.67 115.83 290.93
  Q 115.60 290.24 116.03 289.63
  Q 131.33 312.93 156.96 323.85
  Q 157.61 324.13 157.92 323.49
  Q 161.85 315.38 162.91 307.49
  Q 163.37 304.14 163.02 301.94
  L 157.37 287.79
  Z"
/>
<path fill="#ffffff" d="
  M 115.76 288.21
  Q 116.04 288.93 116.03 289.63
  Q 115.60 290.24 115.83 290.93
  C 128.74 328.67 150.89 361.24 177.51 390.71
  Q 178.28 391.56 178.27 393.53
  L 179.28 400.95
  Q 179.50 402.55 178.31 401.46
  C 162.72 387.12 143.61 374.04 122.75 368.93
  Q 121.99 368.75 122.34 368.04
  L 129.70 352.89
  A 0.61 0.61 0.0 0 0 129.15 352.01
  L 115.98 352.05
  Q 114.96 352.05 115.27 353.02
  L 115.41 353.45
  Q 115.57 353.95 116.09 353.94
  L 126.00 353.81
  A 0.70 0.69 12.4 0 1 126.64 354.80
  L 119.60 369.49
  A 0.93 0.93 0.0 0 0 120.19 370.79
  C 141.91 376.78 162.38 390.55 179.32 405.12
  Q 180.01 405.72 180.12 406.64
  L 186.00 457.94
  Q 186.23 459.95 184.93 458.40
  L 181.36 454.12
  A 0.98 0.97 -43.6 0 1 181.40 452.84
  C 183.94 450.09 180.42 446.22 176.88 447.81
  A 0.81 0.80 -31.8 0 1 175.93 447.59
  L 140.89 405.80
  Q 140.57 405.41 140.06 405.41
  L 132.29 405.31
  L 87.05 444.53
  Q 86.73 430.40 84.09 418.06
  Q 83.50 415.27 83.07 413.04
  L 84.76 404.32
  C 87.94 404.05 86.98 407.85 87.72 409.26
  C 91.54 416.51 100.33 412.65 98.94 404.81
  C 101.24 402.79 100.91 401.25 101.61 398.83
  A 1.72 1.64 -13.1 0 1 102.16 397.99
  Q 106.43 394.47 109.32 390.23
  C 113.16 385.90 114.45 382.32 114.41 376.20
  Q 114.31 354.38 114.55 332.57
  Q 114.60 327.52 113.36 324.62
  C 110.83 318.72 105.60 315.20 98.95 314.79
  Q 97.91 314.73 96.85 314.57
  Q 96.34 314.50 96.36 313.99
  C 96.75 301.66 102.80 290.63 115.76 288.21
  Z
  M 177.84 411.50
  A 3.60 3.60 0.0 0 0 174.24 407.90
  A 3.60 3.60 0.0 0 0 170.64 411.50
  A 3.60 3.60 0.0 0 0 174.24 415.10
  A 3.60 3.60 0.0 0 0 177.84 411.50
  Z"
/>
<path fill="#182647" d="
  M 161.07 290.37
  Q 173.35 294.50 182.46 302.80
  C 195.19 313.97 204.37 330.11 210.28 345.99
  Q 214.56 357.49 215.91 363.76
  Q 214.43 364.40 212.78 364.28
  Q 210.17 352.56 205.28 342.10
  L 204.62 340.48
  Q 196.10 321.15 182.63 307.37
  Q 175.84 300.44 164.93 295.36
  Q 162.47 293.27 161.07 290.37
  Z"
/>
<path fill="#98baff" d="
  M 95.61 300.62
  L 93.34 308.61
  Q 91.98 302.41 92.91 295.77
  Q 92.92 294.18 94.46 294.27
  A 0.74 0.73 8.0 0 1 95.14 295.16
  Q 94.35 298.80 95.61 300.62
  Z"
/>
<path fill="#ffffff" d="
  M 92.91 295.77
  Q 91.98 302.41 93.34 308.61
  L 92.97 313.51
  Q 92.94 313.99 92.46 314.10
  C 84.90 315.72 79.27 317.06 75.82 324.52
  Q 74.52 327.32 74.52 332.20
  Q 74.47 358.49 74.51 384.80
  C 74.52 390.25 75.94 393.72 79.67 397.27
  L 81.50 401.50
  Q 80.62 404.20 80.90 406.37
  Q 79.32 409.46 78.78 411.50
  Q 74.78 426.63 70.89 441.44
  A 1.60 1.60 0.0 0 0 71.39 443.05
  L 80.10 450.63
  L 125.96 491.31
  A 0.59 0.58 -48.1 0 1 126.00 492.14
  Q 125.16 493.05 124.58 494.68
  L 109.89 521.01
  L 103.06 533.62
  A 0.23 0.23 0.0 0 1 102.72 533.70
  Q 71.55 509.93 43.54 482.93
  C 33.86 473.66 24.49 462.91 23.51 449.41
  Q 23.14 444.26 25.61 431.23
  C 30.40 405.98 35.59 380.74 42.15 355.88
  C 45.64 342.66 49.63 329.45 55.58 317.10
  C 56.83 314.51 58.20 312.93 60.74 311.28
  C 71.10 304.55 79.75 300.35 91.76 295.13
  Q 92.25 294.92 92.57 295.34
  L 92.91 295.77
  Z"
/>
<path fill="#ffffff" d="
  M 164.93 295.36
  Q 175.84 300.44 182.63 307.37
  Q 196.10 321.15 204.62 340.48
  L 192.07 348.82
  A 0.56 0.56 0.0 0 0 192.10 349.77
  L 203.24 356.22
  Q 203.78 356.54 203.45 357.07
  C 193.17 373.85 188.96 395.02 185.59 414.14
  C 185.14 416.68 185.22 419.76 184.61 422.59
  Q 184.56 422.80 184.44 422.90
  Q 184.33 422.99 184.16 423.03
  Q 183.63 423.14 183.56 422.61
  L 179.70 393.67
  C 181.33 370.35 181.22 345.60 176.24 323.00
  Q 173.18 309.13 164.93 295.36
  Z"
/>
<path fill="#ffffff" d="
  M 256.55 387.17
  Q 247.82 396.22 244.13 407.87
  Q 244.08 408.02 244.13 408.11
  Q 244.21 408.30 244.54 408.45
  A 0.57 0.56 26.8 0 0 245.26 408.22
  Q 251.29 397.78 259.62 390.22
  L 322.77 342.58
  L 339.74 366.60
  L 346.63 376.63
  A 1.13 1.12 -37.1 0 1 346.42 378.14
  Q 309.03 408.70 271.67 439.27
  Q 266.33 443.64 262.81 444.73
  C 255.03 447.13 247.92 443.98 241.83 438.67
  Q 228.47 427.03 215.07 415.41
  A 0.35 0.35 0.0 0 0 214.49 415.63
  Q 213.88 420.23 213.81 424.99
  Q 213.10 468.43 227.09 509.49
  Q 229.01 515.11 230.85 525.12
  L 206.26 531.88
  A 0.77 0.77 0.0 0 0 205.69 532.66
  C 205.87 537.82 205.51 543.15 205.78 548.11
  Q 206.20 555.68 206.37 563.26
  C 206.51 569.43 207.91 575.15 215.50 574.79
  Q 227.69 574.23 239.11 568.82
  L 240.67 589.89
  A 1.03 1.02 -15.6 0 1 240.11 590.88
  L 227.46 597.26
  Q 219.19 599.79 210.72 600.64
  Q 210.16 600.69 209.82 600.26
  L 193.29 579.39
  Q 193.93 577.23 193.96 576.25
  Q 194.78 552.95 193.89 532.50
  C 193.64 526.71 193.68 521.14 193.31 516.00
  Q 192.69 507.46 192.29 498.60
  A 1.53 1.48 -22.2 0 1 192.83 497.37
  L 206.80 485.62
  Q 207.46 485.06 206.91 484.40
  L 188.09 461.95
  Q 187.73 461.52 187.67 460.96
  Q 186.53 449.20 185.39 437.44
  Q 184.91 432.52 185.39 428.07
  C 188.10 402.87 193.69 379.33 206.36 357.18
  A 1.08 1.07 30.2 0 0 205.97 355.72
  L 195.57 349.62
  Q 194.47 348.97 195.55 348.28
  L 205.28 342.10
  Q 210.17 352.56 212.78 364.28
  Q 205.34 366.90 204.53 373.26
  Q 203.81 378.88 207.82 382.67
  C 216.49 390.90 230.02 381.37 225.24 370.50
  Q 222.79 364.94 215.91 363.76
  Q 214.56 357.49 210.28 345.99
  C 204.37 330.11 195.19 313.97 182.46 302.80
  L 182.57 302.36
  Q 182.63 302.12 182.88 302.12
  Q 183.02 302.12 183.15 302.12
  Q 183.25 302.12 183.34 302.17
  C 192.76 306.87 200.30 311.46 206.77 320.00
  Q 231.46 352.61 256.19 385.19
  Q 256.49 385.60 256.51 386.10
  L 256.55 387.17
  Z"
/>
<path fill="#98baff" d="
  M 96.11 317.81
  Q 97.92 322.95 97.69 328.19
  L 95.61 328.19
  Q 93.75 323.64 93.90 317.97
  Q 94.98 317.64 96.11 317.81
  Z"
/>
<path fill="#ffffff" d="
  M 96.11 317.81
  Q 107.30 317.62 111.16 327.81
  A 0.29 0.29 0.0 0 1 110.89 328.20
  L 97.69 328.19
  Q 97.92 322.95 96.11 317.81
  Z"
/>
<path fill="#ffffff" d="
  M 93.90 317.97
  Q 93.75 323.64 95.61 328.19
  L 78.00 328.22
  Q 77.53 328.22 77.64 327.76
  C 79.39 320.41 86.82 317.73 93.90 317.97
  Z"
/>
<path fill="#fdb9bb" d="
  M 366.57 329.33
  L 363.05 328.84
  A 1.52 1.48 73.1 0 1 362.13 328.33
  L 359.46 325.15
  A 1.27 1.26 23.7 0 1 359.16 324.39
  L 359.03 322.34
  L 373.74 319.90
  A 2.34 2.33 70.7 0 1 376.16 321.07
  C 378.17 324.66 368.78 328.58 366.57 329.33
  Z"
/>
<path fill="#ffd7c5" d="
  M 359.03 322.34
  L 359.16 324.39
  A 1.27 1.26 23.7 0 0 359.46 325.15
  L 362.13 328.33
  A 1.52 1.48 73.1 0 0 363.05 328.84
  L 366.57 329.33
  Q 362.37 330.20 358.41 331.05
  Q 358.03 331.13 357.92 331.31
  Q 357.85 331.44 357.84 331.61
  A 0.35 0.34 -86.7 0 0 358.16 331.98
  Q 366.35 332.68 374.49 333.81
  Q 376.48 334.09 379.71 333.51
  C 386.82 332.25 394.48 323.72 401.64 328.00
  Q 396.44 330.06 391.51 332.86
  Q 391.43 332.91 386.56 336.38
  Q 380.32 340.83 372.29 338.34
  Q 371.56 338.12 370.77 338.46
  Q 370.19 338.72 370.79 338.93
  Q 374.12 340.12 377.59 340.20
  Q 380.69 340.27 384.11 338.64
  Q 387.16 337.18 390.02 335.36
  A 0.62 0.61 -36.4 0 1 390.83 335.48
  Q 391.52 336.30 390.74 336.86
  A 0.63 0.63 0.0 0 0 390.79 337.92
  Q 391.73 338.47 392.05 339.51
  Q 392.21 340.02 392.73 339.88
  Q 393.06 339.79 393.46 340.13
  A 0.66 0.66 0.0 0 1 393.35 341.21
  Q 389.46 343.29 385.77 345.06
  Q 383.52 346.15 380.97 346.19
  Q 377.49 346.26 374.00 346.25
  Q 373.57 346.25 372.92 346.76
  Q 372.59 347.02 373.01 347.05
  C 377.19 347.33 381.81 347.83 385.75 346.14
  Q 388.24 345.07 390.52 343.76
  A 0.80 0.80 0.0 0 1 391.71 344.48
  Q 391.65 346.61 393.11 348.15
  Q 393.48 348.55 393.96 348.28
  Q 396.11 347.01 398.24 345.70
  Q 400.30 344.42 404.57 338.80
  Q 404.80 339.44 404.63 340.42
  Q 404.50 341.15 403.92 341.81
  Q 394.82 352.01 383.26 355.16
  C 373.14 357.91 359.46 356.15 349.25 357.03
  Q 347.81 357.15 346.47 358.72
  Q 343.24 362.50 339.74 366.60
  L 322.77 342.58
  Q 327.55 340.36 329.62 337.36
  C 336.99 326.67 346.00 325.09 359.03 322.34
  Z"
/>
<path fill="#fdb9bb" d="
  M 401.64 328.00
  Q 403.39 329.92 405.12 330.35
  A 1.75 1.75 0.0 0 1 406.12 333.07
  Q 405.05 334.57 403.63 335.60
  A 1.04 0.85 -47.5 0 0 403.54 337.22
  Q 403.99 337.44 404.57 338.80
  Q 400.30 344.42 398.24 345.70
  Q 396.11 347.01 393.96 348.28
  Q 393.48 348.55 393.11 348.15
  Q 391.65 346.61 391.71 344.48
  A 0.80 0.80 0.0 0 0 390.52 343.76
  Q 388.24 345.07 385.75 346.14
  C 381.81 347.83 377.19 347.33 373.01 347.05
  Q 372.59 347.02 372.92 346.76
  Q 373.57 346.25 374.00 346.25
  Q 377.49 346.26 380.97 346.19
  Q 383.52 346.15 385.77 345.06
  Q 389.46 343.29 393.35 341.21
  A 0.66 0.66 0.0 0 0 393.46 340.13
  Q 393.06 339.79 392.73 339.88
  Q 392.21 340.02 392.05 339.51
  Q 391.73 338.47 390.79 337.92
  A 0.63 0.63 0.0 0 1 390.74 336.86
  Q 391.52 336.30 390.83 335.48
  A 0.62 0.61 -36.4 0 0 390.02 335.36
  Q 387.16 337.18 384.11 338.64
  Q 380.69 340.27 377.59 340.20
  Q 374.12 340.12 370.79 338.93
  Q 370.19 338.72 370.77 338.46
  Q 371.56 338.12 372.29 338.34
  Q 380.32 340.83 386.56 336.38
  Q 391.43 332.91 391.51 332.86
  Q 396.44 330.06 401.64 328.00
  Z"
/>
<path fill="#ffffff" d="
  M 95.69 331.27
  Q 97.86 342.38 101.66 353.19
  Q 101.82 353.62 102.28 353.62
  L 111.26 353.56
  Q 111.61 373.83 111.15 380.25
  Q 110.89 383.95 107.15 388.26
  Q 103.02 390.87 99.88 394.55
  Q 99.27 395.28 98.36 395.00
  Q 91.37 392.86 89.70 399.45
  Q 89.42 399.88 89.34 400.49
  Q 89.28 400.92 88.87 401.09
  Q 88.64 401.19 88.35 401.09
  Q 88.10 401.00 87.86 400.67
  Q 87.06 399.55 86.39 398.43
  C 88.55 389.30 90.93 380.12 90.65 370.75
  Q 90.62 369.74 89.91 369.66
  A 0.46 0.46 0.0 0 0 89.41 370.00
  L 83.19 394.67
  Q 82.86 396.37 81.26 395.83
  Q 81.23 395.06 80.90 394.62
  Q 77.46 389.97 77.44 386.25
  Q 77.31 358.87 77.45 331.54
  A 0.38 0.38 0.0 0 1 77.83 331.16
  L 95.69 331.27
  Z"
/>
<path fill="#98baff" d="
  M 95.69 331.27
  L 98.89 331.28
  L 104.76 351.43
  A 1.10 1.08 82.9 0 0 105.76 352.22
  L 111.25 352.49
  Q 111.11 352.92 111.26 353.56
  L 102.28 353.62
  Q 101.82 353.62 101.66 353.19
  Q 97.86 342.38 95.69 331.27
  Z"
/>
<path fill="#ffffff" d="
  M 98.89 331.28
  L 110.75 331.26
  Q 111.29 331.26 111.29 331.80
  L 111.25 352.49
  L 105.76 352.22
  A 1.10 1.08 82.9 0 1 104.76 351.43
  L 98.89 331.28
  Z"
/>
<path fill="#98baff" d="
  M 204.62 340.48
  L 205.28 342.10
  L 195.55 348.28
  Q 194.47 348.97 195.57 349.62
  L 205.97 355.72
  A 1.08 1.07 30.2 0 1 206.36 357.18
  C 193.69 379.33 188.10 402.87 185.39 428.07
  Q 184.91 432.52 185.39 437.44
  Q 186.53 449.20 187.67 460.96
  Q 187.73 461.52 188.09 461.95
  L 206.91 484.40
  Q 207.46 485.06 206.80 485.62
  L 192.83 497.37
  A 1.53 1.48 -22.2 0 0 192.29 498.60
  Q 192.69 507.46 193.31 516.00
  C 193.68 521.14 193.64 526.71 193.89 532.50
  Q 194.78 552.95 193.96 576.25
  Q 193.93 577.23 193.29 579.39
  Q 193.65 578.63 192.26 578.46
  Q 192.92 552.74 191.72 526.99
  C 191.33 518.68 191.30 509.00 190.73 500.03
  A 0.37 0.36 68.0 0 0 190.13 499.77
  L 163.20 522.67
  L 157.86 520.16
  A 1.07 1.06 1.0 0 1 157.34 519.63
  L 157.19 519.29
  Q 158.64 518.82 159.42 518.16
  Q 178.86 501.46 198.64 484.87
  A 0.40 0.40 0.0 0 0 198.69 484.30
  L 132.29 405.31
  L 140.06 405.41
  Q 140.57 405.41 140.89 405.80
  L 175.93 447.59
  A 0.81 0.80 -31.8 0 0 176.88 447.81
  C 180.42 446.22 183.94 450.09 181.40 452.84
  A 0.98 0.97 -43.6 0 0 181.36 454.12
  L 184.93 458.40
  Q 186.23 459.95 186.00 457.94
  L 180.12 406.64
  Q 180.01 405.72 179.32 405.12
  C 162.38 390.55 141.91 376.78 120.19 370.79
  A 0.93 0.93 0.0 0 1 119.60 369.49
  L 126.64 354.80
  A 0.70 0.69 12.4 0 0 126.00 353.81
  L 116.09 353.94
  Q 115.57 353.95 115.41 353.45
  L 115.27 353.02
  Q 114.96 352.05 115.98 352.05
  L 129.15 352.01
  A 0.61 0.61 0.0 0 1 129.70 352.89
  L 122.34 368.04
  Q 121.99 368.75 122.75 368.93
  C 143.61 374.04 162.72 387.12 178.31 401.46
  Q 179.50 402.55 179.28 400.95
  L 178.27 393.53
  L 179.70 393.67
  L 183.56 422.61
  Q 183.63 423.14 184.16 423.03
  Q 184.33 422.99 184.44 422.90
  Q 184.56 422.80 184.61 422.59
  C 185.22 419.76 185.14 416.68 185.59 414.14
  C 188.96 395.02 193.17 373.85 203.45 357.07
  Q 203.78 356.54 203.24 356.22
  L 192.10 349.77
  A 0.56 0.56 0.0 0 1 192.07 348.82
  L 204.62 340.48
  Z"
/>
<path fill="#d6d6d6" d="
  M 215.91 363.76
  Q 222.79 364.94 225.24 370.50
  C 230.02 381.37 216.49 390.90 207.82 382.67
  Q 203.81 378.88 204.53 373.26
  Q 205.34 366.90 212.78 364.28
  Q 214.43 364.40 215.91 363.76
  Z"
/>
<path fill="#98baff" d="
  M 86.39 398.43
  Q 84.12 398.00 83.19 394.67
  L 89.41 370.00
  A 0.46 0.46 0.0 0 1 89.91 369.66
  Q 90.62 369.74 90.65 370.75
  C 90.93 380.12 88.55 389.30 86.39 398.43
  Z"
/>
<path fill="#98baff" d="
  M 259.62 390.22
  Q 251.29 397.78 245.26 408.22
  A 0.57 0.56 26.8 0 1 244.54 408.45
  Q 244.21 408.30 244.13 408.11
  Q 244.08 408.02 244.13 407.87
  Q 247.82 396.22 256.55 387.17
  Q 258.53 386.91 259.62 390.22
  Z"
/>
<path fill="#d6d6d6" d="
  M 107.15 388.26
  Q 107.13 389.50 109.32 390.23
  Q 106.43 394.47 102.16 397.99
  A 1.72 1.64 -13.1 0 0 101.61 398.83
  C 100.91 401.25 101.24 402.79 98.94 404.81
  C 96.50 403.01 94.88 400.58 91.11 401.97
  A 0.77 0.76 -30.9 0 1 90.26 401.76
  Q 89.58 400.99 89.70 399.45
  Q 91.37 392.86 98.36 395.00
  Q 99.27 395.28 99.88 394.55
  Q 103.02 390.87 107.15 388.26
  Z"
/>
<path fill="#eef1f7" d="
  M 83.19 394.67
  Q 84.12 398.00 86.39 398.43
  Q 87.06 399.55 87.86 400.67
  Q 88.10 401.00 88.35 401.09
  Q 88.64 401.19 88.87 401.09
  Q 89.28 400.92 89.34 400.49
  Q 89.42 399.88 89.70 399.45
  Q 89.58 400.99 90.26 401.76
  A 0.77 0.76 -30.9 0 0 91.11 401.97
  C 94.88 400.58 96.50 403.01 98.94 404.81
  C 100.33 412.65 91.54 416.51 87.72 409.26
  C 86.98 407.85 87.94 404.05 84.76 404.32
  Q 84.27 402.66 82.98 401.53
  Q 82.10 400.75 81.50 401.50
  L 79.67 397.27
  Q 80.65 396.97 81.26 395.83
  Q 82.86 396.37 83.19 394.67
  Z"
/>
<path fill="#98baff" d="
  M 84.76 404.32
  L 83.07 413.04
  L 80.90 406.37
  Q 80.62 404.20 81.50 401.50
  Q 82.10 400.75 82.98 401.53
  Q 84.27 402.66 84.76 404.32
  Z"
/>
<path fill="#4c80e7" d="
  M 132.29 405.31
  L 198.69 484.30
  A 0.40 0.40 0.0 0 1 198.64 484.87
  Q 178.86 501.46 159.42 518.16
  Q 158.64 518.82 157.19 519.29
  L 155.51 518.59
  L 143.39 511.21
  Q 141.45 510.04 143.72 510.04
  L 147.75 510.06
  Q 152.22 510.70 157.56 508.76
  C 160.76 507.60 161.66 503.56 157.68 502.75
  C 153.46 501.89 149.29 500.63 144.95 499.73
  L 124.58 494.68
  Q 125.16 493.05 126.00 492.14
  A 0.59 0.58 -48.1 0 0 125.96 491.31
  L 80.10 450.63
  L 87.05 444.53
  L 132.29 405.31
  Z
  M 152.2400 448.5961
  A 7.49 7.32 0.2 0 0 144.7756 441.2500
  A 7.49 7.32 0.2 0 0 137.2600 448.5439
  A 7.49 7.32 0.2 0 0 144.7244 455.8900
  A 7.49 7.32 0.2 0 0 152.2400 448.5961
  Z
  M 166.56 465.50
  A 7.48 7.48 0.0 0 0 159.08 458.02
  A 7.48 7.48 0.0 0 0 151.60 465.50
  A 7.48 7.48 0.0 0 0 159.08 472.98
  A 7.48 7.48 0.0 0 0 166.56 465.50
  Z
  M 181.03 482.59
  A 7.38 7.38 0.0 0 0 173.65 475.21
  A 7.38 7.38 0.0 0 0 166.27 482.59
  A 7.38 7.38 0.0 0 0 173.65 489.97
  A 7.38 7.38 0.0 0 0 181.03 482.59
  Z"
/>
<path fill="#eef1f7" d="
  M 80.90 406.37
  L 83.07 413.04
  Q 83.50 415.27 84.09 418.06
  Q 86.73 430.40 87.05 444.53
  L 80.10 450.63
  L 71.39 443.05
  A 1.60 1.60 0.0 0 1 70.89 441.44
  Q 74.78 426.63 78.78 411.50
  Q 79.32 409.46 80.90 406.37
  Z"
/>
<circle fill="#98baff" cx="174.24" cy="411.50" r="3.60"/>
<path fill="#d6d6d6" d="
  M 1366.00 423.54
  L 1366.00 692.70
  C 1236.65 672.82 1105.39 663.27 974.50 666.66
  C 884.22 668.99 794.24 678.90 706.46 700.54
  C 639.02 717.16 568.74 725.37 499.50 729.43
  C 407.19 734.84 314.49 733.48 222.25 727.60
  Q 110.73 720.50 0.00 705.20
  L 0.00 610.24
  L 62.26 612.28
  Q 144.62 614.54 226.93 614.50
  Q 227.30 614.50 227.35 614.13
  L 227.38 613.80
  Q 227.52 614.96 228.62 614.71
  Q 229.58 614.49 229.91 614.50
  Q 254.71 614.72 264.13 614.61
  C 345.93 613.59 435.01 611.03 520.50 605.07
  C 635.32 597.07 750.94 582.68 861.71 554.95
  Q 1114.36 491.69 1366.00 423.54
  Z"
/>
<ellipse fill="#eef1f7" cx="0.00" cy="0.00" transform="translate(144.75,448.57) rotate(0.2)" rx="7.49" ry="7.32"/>
<circle fill="#98baff" cx="159.08" cy="465.50" r="7.48"/>
<circle fill="#eef1f7" cx="173.65" cy="482.59" r="7.38"/>
<path fill="#4c80e7" d="
  M 43.54 482.93
  Q 71.55 509.93 102.72 533.70
  A 0.23 0.23 0.0 0 0 103.06 533.62
  L 109.89 521.01
  Q 122.11 531.42 137.94 536.22
  Q 116.24 554.82 94.72 573.04
  Q 93.75 573.85 93.05 573.58
  Q 92.25 573.27 91.65 572.04
  L 68.31 543.36
  Q 68.24 543.75 67.14 542.25
  L 62.50 536.14
  L 29.34 495.23
  A 0.42 0.41 -40.5 0 1 29.39 494.65
  L 42.81 483.05
  Q 43.00 482.88 43.25 482.90
  Q 43.38 482.91 43.54 482.93
  Z"
/>
<path fill="#ffd7c5" d="
  M 124.58 494.68
  L 144.95 499.73
  Q 142.70 505.04 147.75 510.06
  L 143.72 510.04
  Q 141.45 510.04 143.39 511.21
  L 155.51 518.59
  Q 155.75 518.80 155.43 519.26
  A 0.15 0.15 0.0 0 0 155.49 519.48
  Q 155.63 519.56 155.78 519.64
  Q 155.95 519.73 155.79 519.84
  Q 155.00 520.42 154.44 521.21
  Q 153.00 523.25 153.66 524.57
  Q 154.73 526.70 152.52 525.93
  L 141.56 522.11
  Q 141.39 522.05 141.33 522.22
  L 141.21 522.59
  Q 141.19 522.63 141.24 522.64
  Q 145.40 524.01 149.69 526.20
  A 0.92 0.92 0.0 0 1 149.76 527.80
  Q 148.72 528.44 148.99 529.55
  A 1.44 1.44 0.0 0 1 147.25 531.29
  L 135.02 528.29
  Q 134.86 528.25 134.85 528.30
  L 134.78 528.57
  Q 134.72 528.78 134.92 528.84
  L 143.24 531.23
  A 0.80 0.79 -49.8 0 1 143.36 532.71
  Q 141.20 533.75 140.57 536.56
  L 137.94 536.22
  Q 122.11 531.42 109.89 521.01
  L 124.58 494.68
  Z"
/>
<path fill="#fdb9bb" d="
  M 144.95 499.73
  C 149.29 500.63 153.46 501.89 157.68 502.75
  C 161.66 503.56 160.76 507.60 157.56 508.76
  Q 152.22 510.70 147.75 510.06
  Q 142.70 505.04 144.95 499.73
  Z"
/>
<path fill="#ffffff" d="
  M 192.26 578.46
  L 191.45 600.74
  Q 191.43 601.28 190.90 601.31
  Q 144.19 603.87 98.00 597.48
  Q 83.28 595.44 64.16 591.27
  L 52.83 588.26
  A 0.57 0.57 0.0 0 1 52.41 587.63
  Q 55.98 562.05 62.50 536.14
  L 67.14 542.25
  Q 66.04 547.43 65.78 552.25
  C 64.82 570.41 74.75 572.03 89.09 574.26
  Q 93.32 574.92 97.46 575.00
  C 105.77 575.17 114.43 575.54 122.70 574.76
  C 128.75 574.19 134.35 574.00 139.76 571.53
  C 152.95 565.50 152.84 549.87 152.36 537.63
  L 154.81 536.04
  A 0.62 0.62 0.0 0 0 155.01 535.20
  Q 154.67 534.64 154.60 534.03
  Q 154.57 533.63 154.95 533.74
  C 157.71 534.55 162.80 535.29 165.05 532.70
  Q 165.44 532.26 165.23 531.71
  L 164.70 530.30
  A 0.71 0.70 -8.2 0 1 165.42 529.35
  Q 168.43 529.57 168.58 527.50
  C 168.75 525.15 165.09 523.58 163.20 522.67
  L 190.13 499.77
  A 0.37 0.36 68.0 0 1 190.73 500.03
  C 191.30 509.00 191.33 518.68 191.72 526.99
  Q 192.92 552.74 192.26 578.46
  Z
  M 187.89 513.75
  A 3.62 3.62 0.0 0 0 184.27 510.13
  A 3.62 3.62 0.0 0 0 180.65 513.75
  A 3.62 3.62 0.0 0 0 184.27 517.37
  A 3.62 3.62 0.0 0 0 187.89 513.75
  Z
  M 187.83 569.19
  A 3.56 3.56 0.0 0 0 184.27 565.63
  A 3.56 3.56 0.0 0 0 180.71 569.19
  A 3.56 3.56 0.0 0 0 184.27 572.75
  A 3.56 3.56 0.0 0 0 187.83 569.19
  Z"
/>
<circle fill="#98baff" cx="184.27" cy="513.75" r="3.62"/>
<path fill="#fdb9bb" d="
  M 155.51 518.59
  L 157.19 519.29
  L 157.34 519.63
  A 1.07 1.06 1.0 0 0 157.86 520.16
  L 163.20 522.67
  C 165.09 523.58 168.75 525.15 168.58 527.50
  Q 168.43 529.57 165.42 529.35
  A 0.71 0.70 -8.2 0 0 164.70 530.30
  L 165.23 531.71
  Q 165.44 532.26 165.05 532.70
  C 162.80 535.29 157.71 534.55 154.95 533.74
  Q 154.57 533.63 154.60 534.03
  Q 154.67 534.64 155.01 535.20
  A 0.62 0.62 0.0 0 1 154.81 536.04
  L 152.36 537.63
  Q 150.71 536.52 150.70 538.21
  L 150.61 537.82
  Q 150.50 537.33 149.99 537.31
  L 145.83 537.18
  L 140.57 536.56
  Q 141.20 533.75 143.36 532.71
  A 0.80 0.79 -49.8 0 0 143.24 531.23
  L 134.92 528.84
  Q 134.72 528.78 134.78 528.57
  L 134.85 528.30
  Q 134.86 528.25 135.02 528.29
  L 147.25 531.29
  A 1.44 1.44 0.0 0 0 148.99 529.55
  Q 148.72 528.44 149.76 527.80
  A 0.92 0.92 0.0 0 0 149.69 526.20
  Q 145.40 524.01 141.24 522.64
  Q 141.19 522.63 141.21 522.59
  L 141.33 522.22
  Q 141.39 522.05 141.56 522.11
  L 152.52 525.93
  Q 154.73 526.70 153.66 524.57
  Q 153.00 523.25 154.44 521.21
  Q 155.00 520.42 155.79 519.84
  Q 155.95 519.73 155.78 519.64
  Q 155.63 519.56 155.49 519.48
  A 0.15 0.15 0.0 0 1 155.43 519.26
  Q 155.75 518.80 155.51 518.59
  Z"
/>
<path fill="#98baff" d="
  M 230.85 525.12
  Q 230.96 525.21 231.38 525.44
  Q 231.73 525.62 231.82 525.86
  Q 232.04 526.45 231.40 527.14
  L 208.65 533.45
  Q 208.16 533.59 208.19 534.09
  L 208.99 546.31
  A 0.49 0.49 0.0 0 0 209.59 546.76
  L 234.00 541.41
  L 234.57 541.48
  Q 235.10 541.54 235.26 542.06
  Q 235.49 542.84 235.25 543.66
  L 210.45 549.91
  A 1.22 1.21 84.0 0 0 209.53 551.05
  C 209.36 555.86 209.67 565.00 212.59 568.82
  C 218.08 576.01 232.13 569.78 238.56 567.26
  Q 240.23 567.36 239.11 568.82
  Q 227.69 574.23 215.50 574.79
  C 207.91 575.15 206.51 569.43 206.37 563.26
  Q 206.20 555.68 205.78 548.11
  C 205.51 543.15 205.87 537.82 205.69 532.66
  A 0.77 0.77 0.0 0 1 206.26 531.88
  L 230.85 525.12
  Z"
/>
<path fill="#ffffff" d="
  M 231.40 527.14
  Q 233.58 533.42 234.56 540.46
  Q 234.60 540.82 234.45 541.02
  Q 234.29 541.24 234.00 541.41
  L 209.59 546.76
  A 0.49 0.49 0.0 0 1 208.99 546.31
  L 208.19 534.09
  Q 208.16 533.59 208.65 533.45
  L 231.40 527.14
  Z"
/>
<path fill="#98baff" d="
  M 137.94 536.22
  L 140.57 536.56
  L 145.83 537.18
  L 139.87 542.17
  A 0.63 0.63 0.0 0 0 140.27 543.28
  L 150.23 543.22
  A 0.50 0.49 -90.0 0 0 150.72 542.72
  L 150.70 538.21
  Q 150.71 536.52 152.36 537.63
  C 152.84 549.87 152.95 565.50 139.76 571.53
  C 134.35 574.00 128.75 574.19 122.70 574.76
  C 114.43 575.54 105.77 575.17 97.46 575.00
  Q 93.32 574.92 89.09 574.26
  C 74.75 572.03 64.82 570.41 65.78 552.25
  Q 66.04 547.43 67.14 542.25
  Q 68.24 543.75 68.31 543.36
  C 67.54 552.93 65.75 565.11 77.28 569.45
  Q 84.15 572.04 91.65 572.04
  Q 92.25 573.27 93.05 573.58
  Q 93.75 573.85 94.72 573.04
  Q 116.24 554.82 137.94 536.22
  Z
  M 131.68 571.79
  C 145.24 570.06 151.28 558.73 150.70 546.15
  A 0.30 0.29 1.1 0 0 150.42 545.87
  L 136.82 545.23
  A 0.70 0.66 23.8 0 0 136.34 545.40
  L 104.14 572.67
  Q 103.50 573.22 104.33 573.24
  Q 117.89 573.56 131.68 571.79
  Z"
/>
<path fill="#ffffff" d="
  M 150.70 538.21
  L 150.72 542.72
  A 0.50 0.49 -90.0 0 1 150.23 543.22
  L 140.27 543.28
  A 0.63 0.63 0.0 0 1 139.87 542.17
  L 145.83 537.18
  L 149.99 537.31
  Q 150.50 537.33 150.61 537.82
  L 150.70 538.21
  Z"
/>
<path fill="#ffffff" d="
  M 68.31 543.36
  L 91.65 572.04
  Q 84.15 572.04 77.28 569.45
  C 65.75 565.11 67.54 552.93 68.31 543.36
  Z"
/>
<path fill="#ffffff" d="
  M 235.25 543.66
  L 238.87 566.61
  Q 238.91 566.85 238.73 567.02
  Q 238.61 567.13 238.56 567.26
  C 232.13 569.78 218.08 576.01 212.59 568.82
  C 209.67 565.00 209.36 555.86 209.53 551.05
  A 1.22 1.21 84.0 0 1 210.45 549.91
  L 235.25 543.66
  Z"
/>
<path fill="#ffffff" d="
  M 150.70 546.15
  C 151.28 558.73 145.24 570.06 131.68 571.79
  Q 117.89 573.56 104.33 573.24
  Q 103.50 573.22 104.14 572.67
  L 136.34 545.40
  A 0.70 0.66 23.8 0 1 136.82 545.23
  L 150.42 545.87
  A 0.30 0.29 1.1 0 1 150.70 546.15
  Z"
/>
<circle fill="#98baff" cx="184.27" cy="569.19" r="3.56"/>
<path fill="#182647" d="
  M 192.26 578.46
  Q 193.65 578.63 193.29 579.39
  L 209.82 600.26
  Q 210.16 600.69 210.72 600.64
  Q 219.19 599.79 227.46 597.26
  L 227.38 613.80
  L 227.35 614.13
  Q 227.30 614.50 226.93 614.50
  Q 144.62 614.54 62.26 612.28
  Q 62.33 602.05 64.16 591.27
  Q 83.28 595.44 98.00 597.48
  Q 144.19 603.87 190.90 601.31
  Q 191.43 601.28 191.45 600.74
  L 192.26 578.46
  Z"
/>
<path fill="#12304e" d="
  M 1366.00 692.70
  L 1366.00 768.00
  L 0.00 768.00
  L 0.00 705.20
  Q 110.73 720.50 222.25 727.60
  C 314.49 733.48 407.19 734.84 499.50 729.43
  C 568.74 725.37 639.02 717.16 706.46 700.54
  C 794.24 678.90 884.22 668.99 974.50 666.66
  C 1105.39 663.27 1236.65 672.82 1366.00 692.70
  Z"
/>
</svg>
