<?xml version="1.0" encoding="UTF-8" standalone="no"?>
<!DOCTYPE svg PUBLIC "-//W3C//DTD SVG 1.1//EN" "http://www.w3.org/Graphics/SVG/1.1/DTD/svg11.dtd">
<svg xmlns="http://www.w3.org/2000/svg" version="1.1" viewBox="0.00 0.00 1456.00 469.00">
<path fill="#e23e57" d="
  M 68.51 152.62
  Q 66.36 150.42 64.35 148.21
  Q 50.15 132.60 50.56 112.66
  C 51.11 86.21 73.24 64.66 99.74 65.68
  Q 108.72 66.02 114.25 67.73
  C 119.96 69.49 123.37 72.22 128.07 74.94
  A 1.66 1.66 0.0 0 0 129.88 74.84
  C 137.22 69.35 143.48 67.03 153.67 65.77
  C 161.18 64.84 170.45 65.93 177.59 69.16
  C 210.95 84.25 216.99 128.20 189.25 152.26
  A 0.55 0.55 0.0 0 0 189.34 153.16
  C 206.66 162.91 218.77 177.87 223.15 197.20
  Q 224.56 203.44 224.63 214.92
  Q 225.05 278.18 224.64 309.75
  C 224.52 319.40 207.95 320.02 207.96 308.10
  Q 208.03 261.05 207.88 214.00
  C 207.79 184.52 185.35 163.91 156.53 162.50
  C 146.18 161.99 146.57 147.69 156.95 147.00
  Q 166.00 146.39 173.43 141.95
  C 196.01 128.48 193.96 95.94 170.51 84.78
  Q 168.78 83.96 163.22 82.77
  C 155.46 81.12 147.58 82.76 140.59 86.32
  Q 139.44 86.91 140.18 87.97
  C 154.32 108.24 148.61 136.05 130.75 151.83
  A 1.01 1.00 -50.5 0 0 130.90 153.45
  C 154.39 167.22 166.46 188.03 166.58 216.00
  Q 166.79 262.00 166.55 308.00
  C 166.50 317.33 155.91 318.94 150.77 311.98
  Q 149.80 310.67 149.80 309.00
  Q 149.66 262.00 149.79 215.00
  C 149.83 198.57 144.61 185.77 132.55 174.61
  C 124.28 166.96 113.68 163.70 103.00 162.05
  Q 100.00 161.59 97.00 162.04
  C 91.22 162.91 85.07 163.63 79.87 165.83
  C 64.31 172.43 54.02 184.02 49.97 200.49
  Q 48.78 205.33 48.78 216.11
  Q 48.76 262.18 48.76 308.25
  C 48.76 317.89 35.97 318.94 32.14 310.77
  Q 31.75 309.93 31.75 306.50
  Q 31.73 261.28 31.76 216.07
  Q 31.77 205.55 33.06 199.55
  C 37.38 179.46 50.20 162.71 68.42 153.19
  Q 68.85 152.96 68.51 152.62
  Z
  M 99.3525 145.8429
  A 32.35 32.01 91.2 0 0 132.0330 114.1704
  A 32.35 32.01 91.2 0 0 100.7075 81.1571
  A 32.35 32.01 91.2 0 0 68.0270 112.8296
  A 32.35 32.01 91.2 0 0 99.3525 145.8429
  Z"
/>
<path fill="#e23e57" d="
  M 263.14 122.99
  Q 249.50 109.68 230.54 90.46
  Q 226.03 85.89 227.94 81.15
  C 230.71 74.28 237.57 74.12 242.65 79.12
  Q 260.46 96.66 278.19 114.32
  C 282.67 118.78 286.35 124.06 280.69 129.70
  Q 261.35 148.98 242.06 168.32
  C 236.92 173.48 229.73 171.89 227.65 164.89
  C 226.56 161.21 228.84 157.84 231.36 155.36
  Q 247.40 139.67 263.15 123.69
  Q 263.50 123.34 263.14 122.99
  Z"
/>
<rect fill="#ffffff" x="638.50" y="93.36" width="42.72" height="207.64" rx="0.52"/>
<rect fill="#ffffff" x="1036.75" y="93.38" width="42.72" height="207.62" rx="0.27"/>
<circle fill="#ffffff" cx="997.71" cy="125.96" r="25.30"/>
<path fill="#ffffff" d="
  M 378.32 221.35
  L 378.31 300.67
  A 0.33 0.33 0.0 0 1 377.98 301.00
  L 333.33 301.00
  A 0.33 0.33 0.0 0 1 333.00 300.67
  L 333.00 102.16
  A 0.33 0.33 0.0 0 1 333.33 101.83
  L 377.98 101.83
  A 0.33 0.33 0.0 0 1 378.31 102.16
  L 378.31 180.92
  A 0.33 0.33 0.0 0 0 378.64 181.25
  L 442.29 181.25
  A 0.33 0.33 0.0 0 0 442.62 180.92
  L 442.62 102.16
  A 0.33 0.33 0.0 0 1 442.95 101.83
  L 487.66 101.83
  A 0.33 0.33 0.0 0 1 487.99 102.16
  L 487.99 300.67
  A 0.33 0.33 0.0 0 1 487.66 301.00
  L 442.95 301.00
  A 0.33 0.33 0.0 0 1 442.62 300.67
  L 442.62 221.35
  A 0.33 0.33 0.0 0 0 442.29 221.02
  L 378.65 221.02
  A 0.33 0.33 0.0 0 0 378.32 221.35
  Z"
/>
<path fill="#ffffff" d="
  M 896.32 221.37
  L 896.31 300.65
  A 0.35 0.35 0.0 0 1 895.96 301.00
  L 851.35 301.00
  A 0.35 0.35 0.0 0 1 851.00 300.65
  L 851.00 102.18
  A 0.35 0.35 0.0 0 1 851.35 101.83
  L 965.78 101.83
  A 0.35 0.35 0.0 0 1 966.13 102.18
  L 966.13 141.28
  A 0.35 0.35 0.0 0 1 965.78 141.63
  L 896.64 141.63
  A 0.35 0.35 0.0 0 0 896.29 141.98
  L 896.33 180.90
  A 0.35 0.35 0.0 0 0 896.68 181.25
  L 960.43 181.25
  A 0.35 0.35 0.0 0 1 960.78 181.60
  L 960.78 220.67
  A 0.35 0.35 0.0 0 1 960.43 221.02
  L 896.67 221.02
  A 0.35 0.35 0.0 0 0 896.32 221.37
  Z"
/>
<path fill="#ffffff" d="
  M 540.56 245.45
  C 540.26 254.10 543.79 261.16 551.13 265.88
  C 558.73 270.76 567.25 271.30 576.25 269.98
  C 584.98 268.70 591.43 263.33 597.21 257.10
  A 0.46 0.46 0.0 0 1 597.75 257.00
  L 627.99 272.12
  A 0.35 0.34 29.3 0 1 628.13 272.61
  Q 613.18 296.84 585.00 302.57
  C 556.86 308.29 530.30 302.56 511.29 280.19
  C 490.19 255.38 490.97 219.99 513.14 195.96
  Q 538.29 168.70 578.00 174.59
  C 614.27 179.98 632.87 209.11 630.31 244.48
  Q 630.27 245.00 629.76 245.00
  L 541.03 244.99
  Q 540.58 244.99 540.56 245.45
  Z
  M 562.87 201.23
  C 551.48 201.82 542.31 209.53 541.72 221.04
  Q 541.71 221.36 542.03 221.36
  L 588.27 221.36
  A 0.55 0.55 0.0 0 0 588.81 220.69
  Q 584.31 200.13 562.87 201.23
  Z"
/>
<path fill="#ffffff" d="
  M 740.72 289.78
  L 740.72 363.27
  Q 740.72 363.76 740.23 363.76
  L 698.50 363.76
  Q 698.00 363.76 698.00 363.25
  L 698.00 177.73
  Q 698.00 177.20 698.53 177.20
  L 739.73 177.21
  Q 740.24 177.21 740.24 177.73
  L 740.23 190.51
  Q 740.23 191.66 741.02 190.83
  Q 743.35 188.40 746.33 185.85
  C 762.73 171.82 786.73 170.25 805.80 178.43
  C 831.92 189.63 844.84 217.73 842.58 245.25
  C 839.46 283.20 808.93 309.97 770.00 303.64
  Q 753.44 300.94 741.17 289.59
  Q 740.72 289.17 740.72 289.78
  Z
  M 763.6412 267.8623
  A 29.31 29.20 99.8 0 0 797.4039 243.9501
  A 29.31 29.20 99.8 0 0 773.6188 210.0977
  A 29.31 29.20 99.8 0 0 739.8561 234.0099
  A 29.31 29.20 99.8 0 0 763.6412 267.8623
  Z"
/>
<path fill="#ffffff" d="
  M 1189.48 188.50
  L 1189.49 177.73
  Q 1189.49 177.20 1190.02 177.20
  L 1231.67 177.21
  A 0.46 0.46 0.0 0 1 1232.13 177.67
  L 1232.13 300.83
  A 0.17 0.16 -90.0 0 1 1231.97 301.00
  L 1190.22 301.00
  A 0.28 0.28 0.0 0 1 1189.94 300.72
  L 1189.98 287.74
  Q 1189.99 286.41 1189.08 287.38
  Q 1171.74 305.87 1145.73 304.58
  C 1106.22 302.63 1083.30 267.03 1087.96 229.63
  C 1092.52 193.07 1122.56 168.48 1160.01 174.43
  Q 1176.76 177.09 1189.05 188.69
  A 0.26 0.26 0.0 0 0 1189.48 188.50
  Z
  M 1156.8744 268.1211
  A 29.31 29.19 99.1 0 0 1190.3326 243.7966
  A 29.31 29.19 99.1 0 0 1166.1456 210.2389
  A 29.31 29.19 99.1 0 0 1132.6874 234.5634
  A 29.31 29.19 99.1 0 0 1156.8744 268.1211
  Z"
/>
<rect fill="#ffffff" x="975.75" y="177.21" width="42.72" height="123.78" rx="0.31"/>
</svg>
