<?xml version="1.0" encoding="UTF-8" standalone="no"?>
<!DOCTYPE svg PUBLIC "-//W3C//DTD SVG 1.1//EN" "http://www.w3.org/Graphics/SVG/1.1/DTD/svg11.dtd">
<svg xmlns="http://www.w3.org/2000/svg" version="1.1" viewBox="0.00 0.00 1366.00 768.00">
<g stroke-width="2.00" fill="none" stroke-linecap="butt">
<path stroke="#873c5f" vector-effect="non-scaling-stroke" d="
  M 68.84 339.92
  A 0.39 0.38 73.3 0 1 68.61 340.35
  Q 64.45 342.06 60.88 344.65
  C 42.67 357.88 31.77 377.80 31.76 400.75
  Q 31.75 447.00 31.84 493.25
  C 31.86 505.25 48.40 506.08 48.45 494.25
  Q 48.56 468.97 48.39 410.50
  Q 48.34 394.71 48.97 390.52
  C 52.16 369.42 68.86 352.84 90.06 349.47
  C 95.29 348.64 100.10 348.08 105.02 348.81
  Q 127.95 352.19 140.81 370.16
  C 146.03 377.45 149.75 387.54 149.74 396.25
  Q 149.70 444.89 149.73 493.53
  C 149.74 504.72 166.15 506.70 166.18 493.76
  Q 166.27 450.26 166.26 406.74
  Q 166.26 393.50 164.93 386.83
  Q 159.60 360.06 136.15 343.95
  Q 133.27 341.96 130.80 340.14
  A 1.24 1.23 41.8 0 1 130.69 338.24
  C 145.52 324.41 151.62 304.69 145.19 285.10
  C 143.99 281.44 141.88 277.99 139.93 274.60
  A 1.45 1.45 0.0 0 1 140.54 272.57
  C 163.87 261.06 189.77 275.24 189.19 302.25
  C 188.82 319.77 175.51 331.91 158.74 333.69
  Q 154.10 334.19 152.56 335.24
  Q 149.39 337.41 149.43 341.99
  C 149.49 347.85 154.40 348.69 159.25 349.04
  Q 162.81 349.30 169.08 350.82
  C 189.84 355.85 205.38 373.12 207.59 394.24
  Q 208.25 400.62 208.25 403.25
  Q 208.19 447.92 208.25 492.59
  C 208.25 497.66 208.81 501.98 214.01 503.30
  Q 220.71 505.00 223.49 499.06
  C 224.36 497.20 224.47 494.28 224.47 492.50
  Q 224.51 449.00 224.47 405.50
  Q 224.46 395.08 223.71 388.74
  C 221.55 370.67 210.71 354.32 195.30 343.96
  Q 192.17 341.85 189.10 339.72
  A 0.80 0.80 0.0 0 1 189.05 338.44
  C 221.62 311.73 205.80 259.16 166.36 252.96
  C 154.60 251.11 141.38 253.46 131.99 260.36
  C 130.41 261.52 128.54 262.47 126.94 261.37
  C 120.24 256.76 115.01 254.40 107.10 253.18
  Q 101.54 252.32 99.25 252.32
  C 75.99 252.37 55.77 268.78 51.62 291.56
  C 48.90 306.45 52.98 321.13 62.75 332.76
  Q 65.37 335.88 68.22 338.80
  Q 68.71 339.30 68.84 339.92"
/>
<path stroke="#959cb2" vector-effect="non-scaling-stroke" d="
  M 681.27 260.73
  A 0.41 0.41 0.0 0 0 680.86 260.32
  L 638.88 260.32
  A 0.41 0.41 0.0 0 0 638.47 260.73
  L 638.47 467.59
  A 0.41 0.41 0.0 0 0 638.88 468.00
  L 680.86 468.00
  A 0.41 0.41 0.0 0 0 681.27 467.59
  L 681.27 260.73"
/>
<path stroke="#959cb2" vector-effect="non-scaling-stroke" d="
  M 1079.52 260.60
  A 0.27 0.27 0.0 0 0 1079.25 260.33
  L 1036.99 260.33
  A 0.27 0.27 0.0 0 0 1036.72 260.60
  L 1036.72 467.72
  A 0.27 0.27 0.0 0 0 1036.99 467.99
  L 1079.25 467.99
  A 0.27 0.27 0.0 0 0 1079.52 467.72
  L 1079.52 260.60"
/>
<path stroke="#873c5f" vector-effect="non-scaling-stroke" d="
  M 262.78 309.02
  A 1.54 1.53 44.9 0 1 262.79 311.20
  Q 246.79 327.18 231.14 342.64
  Q 224.54 349.16 230.20 355.34
  C 235.19 360.79 240.35 356.28 244.18 352.46
  Q 260.66 336.05 277.04 319.54
  C 283.10 313.44 286.09 309.17 279.17 302.33
  Q 261.82 285.19 244.54 267.99
  Q 240.85 264.33 239.08 263.43
  C 231.14 259.40 223.75 269.89 230.02 276.26
  Q 246.47 292.94 262.78 309.02"
/>
<path stroke="#959cb2" vector-effect="non-scaling-stroke" d="
  M 1023.07 292.97
  A 25.36 25.36 0.0 0 0 997.71 267.61
  A 25.36 25.36 0.0 0 0 972.35 292.97
  A 25.36 25.36 0.0 0 0 997.71 318.33
  A 25.36 25.36 0.0 0 0 1023.07 292.97"
/>
<path stroke="#959cb2" vector-effect="non-scaling-stroke" d="
  M 378.92 348.24
  A 0.45 0.45 0.0 0 1 378.47 347.79
  L 378.47 269.20
  A 0.45 0.45 0.0 0 0 378.02 268.75
  L 333.45 268.75
  A 0.45 0.45 0.0 0 0 333.00 269.20
  L 333.00 467.55
  A 0.45 0.45 0.0 0 0 333.45 468.00
  L 378.02 468.00
  A 0.45 0.45 0.0 0 0 378.47 467.55
  L 378.46 388.52
  A 0.45 0.45 0.0 0 1 378.91 388.07
  L 442.07 388.08
  A 0.45 0.45 0.0 0 1 442.52 388.53
  L 442.52 467.55
  A 0.45 0.45 0.0 0 0 442.97 468.00
  L 487.55 468.00
  A 0.45 0.45 0.0 0 0 488.00 467.55
  L 488.00 269.20
  A 0.45 0.45 0.0 0 0 487.55 268.75
  L 442.97 268.76
  A 0.45 0.45 0.0 0 0 442.52 269.21
  L 442.52 347.79
  A 0.45 0.45 0.0 0 1 442.07 348.24
  L 378.92 348.24"
/>
<path stroke="#959cb2" vector-effect="non-scaling-stroke" d="
  M 896.46 309.13
  A 0.42 0.42 0.0 0 1 896.88 308.71
  L 965.81 308.72
  A 0.42 0.42 0.0 0 0 966.23 308.30
  L 966.23 269.17
  A 0.42 0.42 0.0 0 0 965.81 268.75
  L 851.42 268.75
  A 0.42 0.42 0.0 0 0 851.00 269.17
  L 851.00 467.58
  A 0.42 0.42 0.0 0 0 851.42 468.00
  L 896.05 468.00
  A 0.42 0.42 0.0 0 0 896.47 467.58
  L 896.46 388.49
  A 0.42 0.42 0.0 0 1 896.88 388.07
  L 960.44 388.10
  A 0.42 0.42 0.0 0 0 960.86 387.68
  L 960.88 348.65
  A 0.42 0.42 0.0 0 0 960.46 348.23
  L 896.90 348.24
  A 0.42 0.42 0.0 0 1 896.48 347.82
  L 896.46 309.13"
/>
<path stroke="#959cb2" vector-effect="non-scaling-stroke" d="
  M 541.20 411.99
  L 629.74 412.00
  Q 630.38 412.00 630.42 411.36
  C 632.20 382.10 621.04 356.80 593.00 345.58
  Q 583.86 341.93 573.99 340.96
  Q 534.41 337.07 510.60 365.76
  C 490.79 389.62 491.25 423.25 510.83 446.90
  C 529.89 469.91 557.98 475.55 586.49 469.24
  Q 613.65 463.22 628.19 439.69
  A 0.45 0.45 0.0 0 0 628.01 439.05
  L 598.16 424.11
  Q 597.45 423.76 596.91 424.33
  C 591.23 430.20 585.74 434.96 577.47 436.71
  C 560.60 440.27 539.94 433.02 540.70 412.47
  Q 540.72 411.99 541.20 411.99"
/>
<path stroke="#959cb2" vector-effect="non-scaling-stroke" d="
  M 740.75 456.78
  A 0.27 0.27 0.0 0 1 741.21 456.58
  C 752.60 467.57 768.23 472.26 783.82 471.72
  C 842.74 469.68 861.35 392.96 822.44 356.33
  C 800.19 335.39 762.30 334.33 741.40 357.44
  Q 740.25 358.70 740.26 357.00
  L 740.28 344.60
  Q 740.28 344.17 739.85 344.17
  L 698.30 344.14
  A 0.31 0.31 0.0 0 0 697.99 344.45
  L 697.99 530.26
  Q 697.99 530.78 698.51 530.78
  L 740.23 530.78
  Q 740.75 530.78 740.75 530.26
  L 740.75 456.78"
/>
<path stroke="#959cb2" vector-effect="non-scaling-stroke" d="
  M 1189.46 355.42
  A 0.21 0.21 0.0 0 1 1189.10 355.58
  C 1175.23 342.94 1158.02 338.78 1139.76 341.05
  C 1112.66 344.42 1092.23 367.48 1088.21 393.80
  C 1085.10 414.12 1089.33 434.54 1102.68 450.53
  C 1124.03 476.10 1165.52 480.07 1188.89 454.57
  Q 1189.99 453.37 1189.97 455.00
  L 1189.84 467.29
  Q 1189.83 468.00 1190.54 468.00
  L 1231.75 468.00
  A 0.50 0.49 90.0 0 0 1232.24 467.50
  L 1232.24 344.77
  Q 1232.24 344.16 1231.64 344.16
  L 1189.71 344.16
  A 0.33 0.33 0.0 0 0 1189.38 344.50
  L 1189.46 355.42"
/>
<path stroke="#959cb2" vector-effect="non-scaling-stroke" d="
  M 1018.51 344.45
  A 0.29 0.29 0.0 0 0 1018.22 344.16
  L 976.00 344.16
  A 0.29 0.29 0.0 0 0 975.71 344.45
  L 975.71 467.71
  A 0.29 0.29 0.0 0 0 976.00 468.00
  L 1018.22 468.00
  A 0.29 0.29 0.0 0 0 1018.51 467.71
  L 1018.51 344.45"
/>
<path stroke="#873c5f" vector-effect="non-scaling-stroke" d="
  M 99.9600 332.7800
  A 32.62 32.23 90.0 0 0 132.1900 300.1600
  A 32.62 32.23 90.0 0 0 99.9600 267.5400
  A 32.62 32.23 90.0 0 0 67.7300 300.1600
  A 32.62 32.23 90.0 0 0 99.9600 332.7800"
/>
<path stroke="#959cb2" vector-effect="non-scaling-stroke" d="
  M 588.64 387.88
  C 587.15 377.61 580.32 370.20 570.01 368.64
  C 556.64 366.61 543.34 372.70 541.75 387.47
  Q 541.67 388.26 542.46 388.26
  L 588.28 388.30
  A 0.37 0.36 85.9 0 0 588.64 387.88"
/>
<path stroke="#959cb2" vector-effect="non-scaling-stroke" d="
  M 763.9451 434.8539
  A 29.24 29.13 99.2 0 0 797.3753 410.6473
  A 29.24 29.13 99.2 0 0 773.2949 377.1261
  A 29.24 29.13 99.2 0 0 739.8647 401.3327
  A 29.24 29.13 99.2 0 0 763.9451 434.8539"
/>
<path stroke="#959cb2" vector-effect="non-scaling-stroke" d="
  M 1156.5834 434.9920
  A 29.24 29.13 99.7 0 0 1190.2235 411.0781
  A 29.24 29.13 99.7 0 0 1166.4366 377.3480
  A 29.24 29.13 99.7 0 0 1132.7965 401.2619
  A 29.24 29.13 99.7 0 0 1156.5834 434.9920"
/>
</g>
<path fill="#2b3865" d="
  M 0.00 0.00
  L 1366.00 0.00
  L 1366.00 768.00
  L 0.00 768.00
  L 0.00 0.00
  Z
  M 68.84 339.92
  A 0.39 0.38 73.3 0 1 68.61 340.35
  Q 64.45 342.06 60.88 344.65
  C 42.67 357.88 31.77 377.80 31.76 400.75
  Q 31.75 447.00 31.84 493.25
  C 31.86 505.25 48.40 506.08 48.45 494.25
  Q 48.56 468.97 48.39 410.50
  Q 48.34 394.71 48.97 390.52
  C 52.16 369.42 68.86 352.84 90.06 349.47
  C 95.29 348.64 100.10 348.08 105.02 348.81
  Q 127.95 352.19 140.81 370.16
  C 146.03 377.45 149.75 387.54 149.74 396.25
  Q 149.70 444.89 149.73 493.53
  C 149.74 504.72 166.15 506.70 166.18 493.76
  Q 166.27 450.26 166.26 406.74
  Q 166.26 393.50 164.93 386.83
  Q 159.60 360.06 136.15 343.95
  Q 133.27 341.96 130.80 340.14
  A 1.24 1.23 41.8 0 1 130.69 338.24
  C 145.52 324.41 151.62 304.69 145.19 285.10
  C 143.99 281.44 141.88 277.99 139.93 274.60
  A 1.45 1.45 0.0 0 1 140.54 272.57
  C 163.87 261.06 189.77 275.24 189.19 302.25
  C 188.82 319.77 175.51 331.91 158.74 333.69
  Q 154.10 334.19 152.56 335.24
  Q 149.39 337.41 149.43 341.99
  C 149.49 347.85 154.40 348.69 159.25 349.04
  Q 162.81 349.30 169.08 350.82
  C 189.84 355.85 205.38 373.12 207.59 394.24
  Q 208.25 400.62 208.25 403.25
  Q 208.19 447.92 208.25 492.59
  C 208.25 497.66 208.81 501.98 214.01 503.30
  Q 220.71 505.00 223.49 499.06
  C 224.36 497.20 224.47 494.28 224.47 492.50
  Q 224.51 449.00 224.47 405.50
  Q 224.46 395.08 223.71 388.74
  C 221.55 370.67 210.71 354.32 195.30 343.96
  Q 192.17 341.85 189.10 339.72
  A 0.80 0.80 0.0 0 1 189.05 338.44
  C 221.62 311.73 205.80 259.16 166.36 252.96
  C 154.60 251.11 141.38 253.46 131.99 260.36
  C 130.41 261.52 128.54 262.47 126.94 261.37
  C 120.24 256.76 115.01 254.40 107.10 253.18
  Q 101.54 252.32 99.25 252.32
  C 75.99 252.37 55.77 268.78 51.62 291.56
  C 48.90 306.45 52.98 321.13 62.75 332.76
  Q 65.37 335.88 68.22 338.80
  Q 68.71 339.30 68.84 339.92
  Z
  M 681.27 260.73
  A 0.41 0.41 0.0 0 0 680.86 260.32
  L 638.88 260.32
  A 0.41 0.41 0.0 0 0 638.47 260.73
  L 638.47 467.59
  A 0.41 0.41 0.0 0 0 638.88 468.00
  L 680.86 468.00
  A 0.41 0.41 0.0 0 0 681.27 467.59
  L 681.27 260.73
  Z
  M 1079.52 260.60
  A 0.27 0.27 0.0 0 0 1079.25 260.33
  L 1036.99 260.33
  A 0.27 0.27 0.0 0 0 1036.72 260.60
  L 1036.72 467.72
  A 0.27 0.27 0.0 0 0 1036.99 467.99
  L 1079.25 467.99
  A 0.27 0.27 0.0 0 0 1079.52 467.72
  L 1079.52 260.60
  Z
  M 262.78 309.02
  A 1.54 1.53 44.9 0 1 262.79 311.20
  Q 246.79 327.18 231.14 342.64
  Q 224.54 349.16 230.20 355.34
  C 235.19 360.79 240.35 356.28 244.18 352.46
  Q 260.66 336.05 277.04 319.54
  C 283.10 313.44 286.09 309.17 279.17 302.33
  Q 261.82 285.19 244.54 267.99
  Q 240.85 264.33 239.08 263.43
  C 231.14 259.40 223.75 269.89 230.02 276.26
  Q 246.47 292.94 262.78 309.02
  Z
  M 1023.07 292.97
  A 25.36 25.36 0.0 0 0 997.71 267.61
  A 25.36 25.36 0.0 0 0 972.35 292.97
  A 25.36 25.36 0.0 0 0 997.71 318.33
  A 25.36 25.36 0.0 0 0 1023.07 292.97
  Z
  M 378.92 348.24
  A 0.45 0.45 0.0 0 1 378.47 347.79
  L 378.47 269.20
  A 0.45 0.45 0.0 0 0 378.02 268.75
  L 333.45 268.75
  A 0.45 0.45 0.0 0 0 333.00 269.20
  L 333.00 467.55
  A 0.45 0.45 0.0 0 0 333.45 468.00
  L 378.02 468.00
  A 0.45 0.45 0.0 0 0 378.47 467.55
  L 378.46 388.52
  A 0.45 0.45 0.0 0 1 378.91 388.07
  L 442.07 388.08
  A 0.45 0.45 0.0 0 1 442.52 388.53
  L 442.52 467.55
  A 0.45 0.45 0.0 0 0 442.97 468.00
  L 487.55 468.00
  A 0.45 0.45 0.0 0 0 488.00 467.55
  L 488.00 269.20
  A 0.45 0.45 0.0 0 0 487.55 268.75
  L 442.97 268.76
  A 0.45 0.45 0.0 0 0 442.52 269.21
  L 442.52 347.79
  A 0.45 0.45 0.0 0 1 442.07 348.24
  L 378.92 348.24
  Z
  M 896.46 309.13
  A 0.42 0.42 0.0 0 1 896.88 308.71
  L 965.81 308.72
  A 0.42 0.42 0.0 0 0 966.23 308.30
  L 966.23 269.17
  A 0.42 0.42 0.0 0 0 965.81 268.75
  L 851.42 268.75
  A 0.42 0.42 0.0 0 0 851.00 269.17
  L 851.00 467.58
  A 0.42 0.42 0.0 0 0 851.42 468.00
  L 896.05 468.00
  A 0.42 0.42 0.0 0 0 896.47 467.58
  L 896.46 388.49
  A 0.42 0.42 0.0 0 1 896.88 388.07
  L 960.44 388.10
  A 0.42 0.42 0.0 0 0 960.86 387.68
  L 960.88 348.65
  A 0.42 0.42 0.0 0 0 960.46 348.23
  L 896.90 348.24
  A 0.42 0.42 0.0 0 1 896.48 347.82
  L 896.46 309.13
  Z
  M 541.20 411.99
  L 629.74 412.00
  Q 630.38 412.00 630.42 411.36
  C 632.20 382.10 621.04 356.80 593.00 345.58
  Q 583.86 341.93 573.99 340.96
  Q 534.41 337.07 510.60 365.76
  C 490.79 389.62 491.25 423.25 510.83 446.90
  C 529.89 469.91 557.98 475.55 586.49 469.24
  Q 613.65 463.22 628.19 439.69
  A 0.45 0.45 0.0 0 0 628.01 439.05
  L 598.16 424.11
  Q 597.45 423.76 596.91 424.33
  C 591.23 430.20 585.74 434.96 577.47 436.71
  C 560.60 440.27 539.94 433.02 540.70 412.47
  Q 540.72 411.99 541.20 411.99
  Z
  M 740.75 456.78
  A 0.27 0.27 0.0 0 1 741.21 456.58
  C 752.60 467.57 768.23 472.26 783.82 471.72
  C 842.74 469.68 861.35 392.96 822.44 356.33
  C 800.19 335.39 762.30 334.33 741.40 357.44
  Q 740.25 358.70 740.26 357.00
  L 740.28 344.60
  Q 740.28 344.17 739.85 344.17
  L 698.30 344.14
  A 0.31 0.31 0.0 0 0 697.99 344.45
  L 697.99 530.26
  Q 697.99 530.78 698.51 530.78
  L 740.23 530.78
  Q 740.75 530.78 740.75 530.26
  L 740.75 456.78
  Z
  M 1189.46 355.42
  A 0.21 0.21 0.0 0 1 1189.10 355.58
  C 1175.23 342.94 1158.02 338.78 1139.76 341.05
  C 1112.66 344.42 1092.23 367.48 1088.21 393.80
  C 1085.10 414.12 1089.33 434.54 1102.68 450.53
  C 1124.03 476.10 1165.52 480.07 1188.89 454.57
  Q 1189.99 453.37 1189.97 455.00
  L 1189.84 467.29
  Q 1189.83 468.00 1190.54 468.00
  L 1231.75 468.00
  A 0.50 0.49 90.0 0 0 1232.24 467.50
  L 1232.24 344.77
  Q 1232.24 344.16 1231.64 344.16
  L 1189.71 344.16
  A 0.33 0.33 0.0 0 0 1189.38 344.50
  L 1189.46 355.42
  Z
  M 1018.51 344.45
  A 0.29 0.29 0.0 0 0 1018.22 344.16
  L 976.00 344.16
  A 0.29 0.29 0.0 0 0 975.71 344.45
  L 975.71 467.71
  A 0.29 0.29 0.0 0 0 976.00 468.00
  L 1018.22 468.00
  A 0.29 0.29 0.0 0 0 1018.51 467.71
  L 1018.51 344.45
  Z"
/>
<path fill="#e23f58" d="
  M 68.84 339.92
  Q 68.71 339.30 68.22 338.80
  Q 65.37 335.88 62.75 332.76
  C 52.98 321.13 48.90 306.45 51.62 291.56
  C 55.77 268.78 75.99 252.37 99.25 252.32
  Q 101.54 252.32 107.10 253.18
  C 115.01 254.40 120.24 256.76 126.94 261.37
  C 128.54 262.47 130.41 261.52 131.99 260.36
  C 141.38 253.46 154.60 251.11 166.36 252.96
  C 205.80 259.16 221.62 311.73 189.05 338.44
  A 0.80 0.80 0.0 0 0 189.10 339.72
  Q 192.17 341.85 195.30 343.96
  C 210.71 354.32 221.55 370.67 223.71 388.74
  Q 224.46 395.08 224.47 405.50
  Q 224.51 449.00 224.47 492.50
  C 224.47 494.28 224.36 497.20 223.49 499.06
  Q 220.71 505.00 214.01 503.30
  C 208.81 501.98 208.25 497.66 208.25 492.59
  Q 208.19 447.92 208.25 403.25
  Q 208.25 400.62 207.59 394.24
  C 205.38 373.12 189.84 355.85 169.08 350.82
  Q 162.81 349.30 159.25 349.04
  C 154.40 348.69 149.49 347.85 149.43 341.99
  Q 149.39 337.41 152.56 335.24
  Q 154.10 334.19 158.74 333.69
  C 175.51 331.91 188.82 319.77 189.19 302.25
  C 189.77 275.24 163.87 261.06 140.54 272.57
  A 1.45 1.45 0.0 0 0 139.93 274.60
  C 141.88 277.99 143.99 281.44 145.19 285.10
  C 151.62 304.69 145.52 324.41 130.69 338.24
  A 1.24 1.23 41.8 0 0 130.80 340.14
  Q 133.27 341.96 136.15 343.95
  Q 159.60 360.06 164.93 386.83
  Q 166.26 393.50 166.26 406.74
  Q 166.27 450.26 166.18 493.76
  C 166.15 506.70 149.74 504.72 149.73 493.53
  Q 149.70 444.89 149.74 396.25
  C 149.75 387.54 146.03 377.45 140.81 370.16
  Q 127.95 352.19 105.02 348.81
  C 100.10 348.08 95.29 348.64 90.06 349.47
  C 68.86 352.84 52.16 369.42 48.97 390.52
  Q 48.34 394.71 48.39 410.50
  Q 48.56 468.97 48.45 494.25
  C 48.40 506.08 31.86 505.25 31.84 493.25
  Q 31.75 447.00 31.76 400.75
  C 31.77 377.80 42.67 357.88 60.88 344.65
  Q 64.45 342.06 68.61 340.35
  A 0.39 0.38 73.3 0 0 68.84 339.92
  Z
  M 99.9600 332.7800
  A 32.62 32.23 90.0 0 0 132.1900 300.1600
  A 32.62 32.23 90.0 0 0 99.9600 267.5400
  A 32.62 32.23 90.0 0 0 67.7300 300.1600
  A 32.62 32.23 90.0 0 0 99.9600 332.7800
  Z"
/>
<rect fill="#ffffff" x="638.47" y="260.32" width="42.80" height="207.68" rx="0.41"/>
<rect fill="#ffffff" x="1036.72" y="260.33" width="42.80" height="207.66" rx="0.27"/>
<path fill="#e23f58" d="
  M 262.78 309.02
  Q 246.47 292.94 230.02 276.26
  C 223.75 269.89 231.14 259.40 239.08 263.43
  Q 240.85 264.33 244.54 267.99
  Q 261.82 285.19 279.17 302.33
  C 286.09 309.17 283.10 313.44 277.04 319.54
  Q 260.66 336.05 244.18 352.46
  C 240.35 356.28 235.19 360.79 230.20 355.34
  Q 224.54 349.16 231.14 342.64
  Q 246.79 327.18 262.79 311.20
  A 1.54 1.53 44.9 0 0 262.78 309.02
  Z"
/>
<ellipse fill="#2b3865" cx="0.00" cy="0.00" transform="translate(99.96,300.16) rotate(90.0)" rx="32.62" ry="32.23"/>
<circle fill="#ffffff" cx="997.71" cy="292.97" r="25.36"/>
<path fill="#ffffff" d="
  M 378.92 348.24
  L 442.07 348.24
  A 0.45 0.45 0.0 0 0 442.52 347.79
  L 442.52 269.21
  A 0.45 0.45 0.0 0 1 442.97 268.76
  L 487.55 268.75
  A 0.45 0.45 0.0 0 1 488.00 269.20
  L 488.00 467.55
  A 0.45 0.45 0.0 0 1 487.55 468.00
  L 442.97 468.00
  A 0.45 0.45 0.0 0 1 442.52 467.55
  L 442.52 388.53
  A 0.45 0.45 0.0 0 0 442.07 388.08
  L 378.91 388.07
  A 0.45 0.45 0.0 0 0 378.46 388.52
  L 378.47 467.55
  A 0.45 0.45 0.0 0 1 378.02 468.00
  L 333.45 468.00
  A 0.45 0.45 0.0 0 1 333.00 467.55
  L 333.00 269.20
  A 0.45 0.45 0.0 0 1 333.45 268.75
  L 378.02 268.75
  A 0.45 0.45 0.0 0 1 378.47 269.20
  L 378.47 347.79
  A 0.45 0.45 0.0 0 0 378.92 348.24
  Z"
/>
<path fill="#ffffff" d="
  M 896.46 309.13
  L 896.48 347.82
  A 0.42 0.42 0.0 0 0 896.90 348.24
  L 960.46 348.23
  A 0.42 0.42 0.0 0 1 960.88 348.65
  L 960.86 387.68
  A 0.42 0.42 0.0 0 1 960.44 388.10
  L 896.88 388.07
  A 0.42 0.42 0.0 0 0 896.46 388.49
  L 896.47 467.58
  A 0.42 0.42 0.0 0 1 896.05 468.00
  L 851.42 468.00
  A 0.42 0.42 0.0 0 1 851.00 467.58
  L 851.00 269.17
  A 0.42 0.42 0.0 0 1 851.42 268.75
  L 965.81 268.75
  A 0.42 0.42 0.0 0 1 966.23 269.17
  L 966.23 308.30
  A 0.42 0.42 0.0 0 1 965.81 308.72
  L 896.88 308.71
  A 0.42 0.42 0.0 0 0 896.46 309.13
  Z"
/>
<path fill="#ffffff" d="
  M 540.70 412.47
  C 539.94 433.02 560.60 440.27 577.47 436.71
  C 585.74 434.96 591.23 430.20 596.91 424.33
  Q 597.45 423.76 598.16 424.11
  L 628.01 439.05
  A 0.45 0.45 0.0 0 1 628.19 439.69
  Q 613.65 463.22 586.49 469.24
  C 557.98 475.55 529.89 469.91 510.83 446.90
  C 491.25 423.25 490.79 389.62 510.60 365.76
  Q 534.41 337.07 573.99 340.96
  Q 583.86 341.93 593.00 345.58
  C 621.04 356.80 632.20 382.10 630.42 411.36
  Q 630.38 412.00 629.74 412.00
  L 541.20 411.99
  Q 540.72 411.99 540.70 412.47
  Z
  M 588.64 387.88
  C 587.15 377.61 580.32 370.20 570.01 368.64
  C 556.64 366.61 543.34 372.70 541.75 387.47
  Q 541.67 388.26 542.46 388.26
  L 588.28 388.30
  A 0.37 0.36 85.9 0 0 588.64 387.88
  Z"
/>
<path fill="#ffffff" d="
  M 740.75 456.78
  L 740.75 530.26
  Q 740.75 530.78 740.23 530.78
  L 698.51 530.78
  Q 697.99 530.78 697.99 530.26
  L 697.99 344.45
  A 0.31 0.31 0.0 0 1 698.30 344.14
  L 739.85 344.17
  Q 740.28 344.17 740.28 344.60
  L 740.26 357.00
  Q 740.25 358.70 741.40 357.44
  C 762.30 334.33 800.19 335.39 822.44 356.33
  C 861.35 392.96 842.74 469.68 783.82 471.72
  C 768.23 472.26 752.60 467.57 741.21 456.58
  A 0.27 0.27 0.0 0 0 740.75 456.78
  Z
  M 763.9451 434.8539
  A 29.24 29.13 99.2 0 0 797.3753 410.6473
  A 29.24 29.13 99.2 0 0 773.2949 377.1261
  A 29.24 29.13 99.2 0 0 739.8647 401.3327
  A 29.24 29.13 99.2 0 0 763.9451 434.8539
  Z"
/>
<path fill="#ffffff" d="
  M 1189.46 355.42
  L 1189.38 344.50
  A 0.33 0.33 0.0 0 1 1189.71 344.16
  L 1231.64 344.16
  Q 1232.24 344.16 1232.24 344.77
  L 1232.24 467.50
  A 0.50 0.49 90.0 0 1 1231.75 468.00
  L 1190.54 468.00
  Q 1189.83 468.00 1189.84 467.29
  L 1189.97 455.00
  Q 1189.99 453.37 1188.89 454.57
  C 1165.52 480.07 1124.03 476.10 1102.68 450.53
  C 1089.33 434.54 1085.10 414.12 1088.21 393.80
  C 1092.23 367.48 1112.66 344.42 1139.76 341.05
  C 1158.02 338.78 1175.23 342.94 1189.10 355.58
  A 0.21 0.21 0.0 0 0 1189.46 355.42
  Z
  M 1156.5834 434.9920
  A 29.24 29.13 99.7 0 0 1190.2235 411.0781
  A 29.24 29.13 99.7 0 0 1166.4366 377.3480
  A 29.24 29.13 99.7 0 0 1132.7965 401.2619
  A 29.24 29.13 99.7 0 0 1156.5834 434.9920
  Z"
/>
<rect fill="#ffffff" x="975.71" y="344.16" width="42.80" height="123.84" rx="0.29"/>
<path fill="#2b3865" d="
  M 570.01 368.64
  C 580.32 370.20 587.15 377.61 588.64 387.88
  A 0.37 0.36 85.9 0 1 588.28 388.30
  L 542.46 388.26
  Q 541.67 388.26 541.75 387.47
  C 543.34 372.70 556.64 366.61 570.01 368.64
  Z"
/>
<ellipse fill="#2b3865" cx="0.00" cy="0.00" transform="translate(768.62,405.99) rotate(99.2)" rx="29.24" ry="29.13"/>
<ellipse fill="#2b3865" cx="0.00" cy="0.00" transform="translate(1161.51,406.17) rotate(99.7)" rx="29.24" ry="29.13"/>
</svg>
