<svg id="visual" viewBox="0 0 1920 1080" width="1920" height="1080" xmlns="http://www.w3.org/2000/svg" xmlns:xlink="http://www.w3.org/1999/xlink" version="1.1"><path d="M0 700L35.5 699.7C71 699.3 142 698.7 213.2 704.8C284.3 711 355.7 724 426.8 727.7C498 731.3 569 725.7 640 727.5C711 729.3 782 738.7 853.2 739.2C924.3 739.7 995.7 731.3 1066.8 724.8C1138 718.3 1209 713.7 1280 717.2C1351 720.7 1422 732.3 1493.2 734.5C1564.3 736.7 1635.7 729.3 1706.8 722.5C1778 715.7 1849 709.3 1884.5 706.2L1920 703L1920 1081L1884.5 1081C1849 1081 1778 1081 1706.8 1081C1635.7 1081 1564.3 1081 1493.2 1081C1422 1081 1351 1081 1280 1081C1209 1081 1138 1081 1066.8 1081C995.7 1081 924.3 1081 853.2 1081C782 1081 711 1081 640 1081C569 1081 498 1081 426.8 1081C355.7 1081 284.3 1081 213.2 1081C142 1081 71 1081 35.5 1081L0 1081Z" fill="#d6d6d6"></path><path d="M0 870L35.5 875.5C71 881 142 892 213.2 900.8C284.3 909.7 355.7 916.3 426.8 918.8C498 921.3 569 919.7 640 919.7C711 919.7 782 921.3 853.2 915C924.3 908.7 995.7 894.3 1066.8 889.2C1138 884 1209 888 1280 892.2C1351 896.3 1422 900.7 1493.2 902.8C1564.3 905 1635.7 905 1706.8 898.2C1778 891.3 1849 877.7 1884.5 870.8L1920 864L1920 1081L1884.5 1081C1849 1081 1778 1081 1706.8 1081C1635.7 1081 1564.3 1081 1493.2 1081C1422 1081 1351 1081 1280 1081C1209 1081 1138 1081 1066.8 1081C995.7 1081 924.3 1081 853.2 1081C782 1081 711 1081 640 1081C569 1081 498 1081 426.8 1081C355.7 1081 284.3 1081 213.2 1081C142 1081 71 1081 35.5 1081L0 1081Z" fill="#12314e"></path></svg>