<svg id="visual" viewBox="0 0 1920 1080" width="1920" height="1080" xmlns="http://www.w3.org/2000/svg" xmlns:xlink="http://www.w3.org/1999/xlink" version="1.1"><rect x="0" y="0" width="1920" height="1080" fill="#e8e8e8"></rect><defs><linearGradient id="grad1_0" x1="43.8%" y1="0%" x2="100%" y2="100%"><stop offset="14.444444444444446%" stop-color="#e8e8e8" stop-opacity="1"></stop><stop offset="85.55555555555554%" stop-color="#e8e8e8" stop-opacity="1"></stop></linearGradient></defs><defs><linearGradient id="grad2_0" x1="0%" y1="0%" x2="56.3%" y2="100%"><stop offset="14.444444444444446%" stop-color="#e8e8e8" stop-opacity="1"></stop><stop offset="85.55555555555554%" stop-color="#e8e8e8" stop-opacity="1"></stop></linearGradient></defs><g transform="translate(1920, 0)"><path d="M0 648C-48 627.4 -96 606.8 -131.3 575.2C-166.6 543.7 -189.3 501.2 -239.5 497.3C-289.7 493.5 -367.4 528.2 -404 506.6C-440.6 485 -436 407 -444.9 354.8C-453.7 302.5 -476 276 -510.8 246C-545.7 216 -593.1 182.7 -618.1 141.1C-643.1 99.5 -645.5 49.8 -648 0L0 0Z" fill="#12314E"></path></g><g transform="translate(0, 1080)"><path d="M0 -648C43.5 -611.1 86.9 -574.3 125.1 -547.9C163.2 -521.6 195.9 -505.7 240.4 -499.1C284.8 -492.5 341 -495.1 377.8 -473.8C414.6 -452.5 432 -407.2 469.1 -374.1C506.2 -341 562.9 -320 583.8 -281.2C604.8 -242.3 590 -185.6 594.7 -135.7C599.4 -85.9 623.7 -42.9 648 0L0 0Z" fill="#12314E"></path></g></svg>